ISO-10303-21;
HEADER;
/* Generated by software containing ST-Developer
 * from STEP Tools, Inc. (www.steptools.com) 
 */
/* OPTION: using custom renumber hook */

FILE_DESCRIPTION(
/* description */ ('STEP AP242 Edition 2',
'CAx-IF Rec.Pracs.---Representation and Presentation of Product Manufa
cturing Information (PMI)---4.0---2014-10-13',
'CAx-IF Rec.Pracs.---3D Tessellated Geometry---0.4---2014-09-14','2;1',
'CAx-IF Rec.Pracs.---User Defined Attributes---1.5---2016-08-15'),
/* implementation_level */ '2;1');

FILE_NAME(
/* name */ 'keyboard supprots',
/* time_stamp */ '2026-10-04T20:45:09Z',
/* author */ (''),
/* organization */ (''),
/* preprocessor_version */ 'ST-DEVELOPER v20',
/* originating_system */ 'ONSHAPE BY PTC INC, 1.221',
/* authorisation */ '  ');

FILE_SCHEMA (('AP242_MANAGED_MODEL_BASED_3D_ENGINEERING_MIM_LF { 1 0 10303 442 3 1 4 }'));
ENDSEC;

DATA;
#10=SHAPE_REPRESENTATION_RELATIONSHIP('','',#382,#12);
#11=SHAPE_REPRESENTATION_RELATIONSHIP('','',#383,#13);
#12=ADVANCED_BREP_SHAPE_REPRESENTATION('',(#378),#614);
#13=ADVANCED_BREP_SHAPE_REPRESENTATION('',(#379),#615);
#14=CIRCLE('',#389,0.0241568586080958);
#15=CIRCLE('',#390,0.0241568586080958);
#16=CIRCLE('',#395,0.002);
#17=CIRCLE('',#396,0.002);
#18=CIRCLE('',#404,0.0241568586080958);
#19=CIRCLE('',#405,0.0241568586080958);
#20=CIRCLE('',#410,0.002);
#21=CIRCLE('',#411,0.002);
#22=CYLINDRICAL_SURFACE('',#388,0.0241568586080958);
#23=CYLINDRICAL_SURFACE('',#394,0.002);
#24=CYLINDRICAL_SURFACE('',#403,0.0241568586080958);
#25=CYLINDRICAL_SURFACE('',#409,0.002);
#26=ORIENTED_EDGE('',*,*,#118,.F.);
#27=ORIENTED_EDGE('',*,*,#119,.F.);
#28=ORIENTED_EDGE('',*,*,#120,.T.);
#29=ORIENTED_EDGE('',*,*,#121,.T.);
#30=ORIENTED_EDGE('',*,*,#122,.F.);
#31=ORIENTED_EDGE('',*,*,#123,.F.);
#32=ORIENTED_EDGE('',*,*,#124,.T.);
#33=ORIENTED_EDGE('',*,*,#119,.T.);
#34=ORIENTED_EDGE('',*,*,#125,.F.);
#35=ORIENTED_EDGE('',*,*,#126,.F.);
#36=ORIENTED_EDGE('',*,*,#127,.T.);
#37=ORIENTED_EDGE('',*,*,#123,.T.);
#38=ORIENTED_EDGE('',*,*,#128,.F.);
#39=ORIENTED_EDGE('',*,*,#129,.F.);
#40=ORIENTED_EDGE('',*,*,#130,.T.);
#41=ORIENTED_EDGE('',*,*,#126,.T.);
#42=ORIENTED_EDGE('',*,*,#131,.T.);
#43=ORIENTED_EDGE('',*,*,#132,.F.);
#44=ORIENTED_EDGE('',*,*,#133,.F.);
#45=ORIENTED_EDGE('',*,*,#129,.T.);
#46=ORIENTED_EDGE('',*,*,#134,.T.);
#47=ORIENTED_EDGE('',*,*,#135,.F.);
#48=ORIENTED_EDGE('',*,*,#136,.F.);
#49=ORIENTED_EDGE('',*,*,#132,.T.);
#50=ORIENTED_EDGE('',*,*,#137,.F.);
#51=ORIENTED_EDGE('',*,*,#121,.F.);
#52=ORIENTED_EDGE('',*,*,#138,.T.);
#53=ORIENTED_EDGE('',*,*,#135,.T.);
#54=ORIENTED_EDGE('',*,*,#139,.T.);
#55=ORIENTED_EDGE('',*,*,#140,.F.);
#56=ORIENTED_EDGE('',*,*,#120,.F.);
#57=ORIENTED_EDGE('',*,*,#124,.F.);
#58=ORIENTED_EDGE('',*,*,#127,.F.);
#59=ORIENTED_EDGE('',*,*,#130,.F.);
#60=ORIENTED_EDGE('',*,*,#133,.T.);
#61=ORIENTED_EDGE('',*,*,#136,.T.);
#62=ORIENTED_EDGE('',*,*,#138,.F.);
#63=ORIENTED_EDGE('',*,*,#139,.F.);
#64=ORIENTED_EDGE('',*,*,#118,.T.);
#65=ORIENTED_EDGE('',*,*,#137,.T.);
#66=ORIENTED_EDGE('',*,*,#134,.F.);
#67=ORIENTED_EDGE('',*,*,#131,.F.);
#68=ORIENTED_EDGE('',*,*,#128,.T.);
#69=ORIENTED_EDGE('',*,*,#125,.T.);
#70=ORIENTED_EDGE('',*,*,#122,.T.);
#71=ORIENTED_EDGE('',*,*,#140,.T.);
#72=ORIENTED_EDGE('',*,*,#141,.F.);
#73=ORIENTED_EDGE('',*,*,#142,.F.);
#74=ORIENTED_EDGE('',*,*,#143,.T.);
#75=ORIENTED_EDGE('',*,*,#144,.T.);
#76=ORIENTED_EDGE('',*,*,#145,.F.);
#77=ORIENTED_EDGE('',*,*,#146,.F.);
#78=ORIENTED_EDGE('',*,*,#147,.T.);
#79=ORIENTED_EDGE('',*,*,#142,.T.);
#80=ORIENTED_EDGE('',*,*,#148,.F.);
#81=ORIENTED_EDGE('',*,*,#149,.F.);
#82=ORIENTED_EDGE('',*,*,#150,.T.);
#83=ORIENTED_EDGE('',*,*,#146,.T.);
#84=ORIENTED_EDGE('',*,*,#151,.T.);
#85=ORIENTED_EDGE('',*,*,#152,.F.);
#86=ORIENTED_EDGE('',*,*,#153,.F.);
#87=ORIENTED_EDGE('',*,*,#149,.T.);
#88=ORIENTED_EDGE('',*,*,#154,.T.);
#89=ORIENTED_EDGE('',*,*,#155,.F.);
#90=ORIENTED_EDGE('',*,*,#156,.F.);
#91=ORIENTED_EDGE('',*,*,#152,.T.);
#92=ORIENTED_EDGE('',*,*,#157,.T.);
#93=ORIENTED_EDGE('',*,*,#158,.F.);
#94=ORIENTED_EDGE('',*,*,#159,.F.);
#95=ORIENTED_EDGE('',*,*,#155,.T.);
#96=ORIENTED_EDGE('',*,*,#160,.T.);
#97=ORIENTED_EDGE('',*,*,#144,.F.);
#98=ORIENTED_EDGE('',*,*,#161,.F.);
#99=ORIENTED_EDGE('',*,*,#158,.T.);
#100=ORIENTED_EDGE('',*,*,#162,.T.);
#101=ORIENTED_EDGE('',*,*,#163,.F.);
#102=ORIENTED_EDGE('',*,*,#143,.F.);
#103=ORIENTED_EDGE('',*,*,#147,.F.);
#104=ORIENTED_EDGE('',*,*,#150,.F.);
#105=ORIENTED_EDGE('',*,*,#153,.T.);
#106=ORIENTED_EDGE('',*,*,#156,.T.);
#107=ORIENTED_EDGE('',*,*,#159,.T.);
#108=ORIENTED_EDGE('',*,*,#161,.T.);
#109=ORIENTED_EDGE('',*,*,#162,.F.);
#110=ORIENTED_EDGE('',*,*,#141,.T.);
#111=ORIENTED_EDGE('',*,*,#160,.F.);
#112=ORIENTED_EDGE('',*,*,#157,.F.);
#113=ORIENTED_EDGE('',*,*,#154,.F.);
#114=ORIENTED_EDGE('',*,*,#151,.F.);
#115=ORIENTED_EDGE('',*,*,#148,.T.);
#116=ORIENTED_EDGE('',*,*,#145,.T.);
#117=ORIENTED_EDGE('',*,*,#163,.T.);
#118=EDGE_CURVE('',#164,#165,#196,.T.);
#119=EDGE_CURVE('',#166,#164,#197,.T.);
#120=EDGE_CURVE('',#166,#167,#198,.T.);
#121=EDGE_CURVE('',#167,#165,#199,.T.);
#122=EDGE_CURVE('',#168,#164,#200,.T.);
#123=EDGE_CURVE('',#169,#168,#201,.T.);
#124=EDGE_CURVE('',#169,#166,#202,.T.);
#125=EDGE_CURVE('',#170,#168,#203,.T.);
#126=EDGE_CURVE('',#171,#170,#204,.T.);
#127=EDGE_CURVE('',#171,#169,#205,.T.);
#128=EDGE_CURVE('',#172,#170,#14,.T.);
#129=EDGE_CURVE('',#173,#172,#206,.T.);
#130=EDGE_CURVE('',#173,#171,#15,.T.);
#131=EDGE_CURVE('',#172,#174,#207,.T.);
#132=EDGE_CURVE('',#175,#174,#208,.T.);
#133=EDGE_CURVE('',#173,#175,#209,.T.);
#134=EDGE_CURVE('',#174,#176,#210,.T.);
#135=EDGE_CURVE('',#177,#176,#211,.T.);
#136=EDGE_CURVE('',#175,#177,#212,.T.);
#137=EDGE_CURVE('',#165,#176,#213,.T.);
#138=EDGE_CURVE('',#167,#177,#214,.T.);
#139=EDGE_CURVE('',#178,#178,#16,.T.);
#140=EDGE_CURVE('',#179,#179,#17,.T.);
#141=EDGE_CURVE('',#180,#181,#215,.T.);
#142=EDGE_CURVE('',#182,#180,#216,.T.);
#143=EDGE_CURVE('',#182,#183,#217,.T.);
#144=EDGE_CURVE('',#183,#181,#218,.T.);
#145=EDGE_CURVE('',#184,#180,#219,.T.);
#146=EDGE_CURVE('',#185,#184,#220,.T.);
#147=EDGE_CURVE('',#185,#182,#221,.T.);
#148=EDGE_CURVE('',#186,#184,#222,.T.);
#149=EDGE_CURVE('',#187,#186,#223,.T.);
#150=EDGE_CURVE('',#187,#185,#224,.T.);
#151=EDGE_CURVE('',#186,#188,#18,.T.);
#152=EDGE_CURVE('',#189,#188,#225,.T.);
#153=EDGE_CURVE('',#187,#189,#19,.T.);
#154=EDGE_CURVE('',#188,#190,#226,.T.);
#155=EDGE_CURVE('',#191,#190,#227,.T.);
#156=EDGE_CURVE('',#189,#191,#228,.T.);
#157=EDGE_CURVE('',#190,#192,#229,.T.);
#158=EDGE_CURVE('',#193,#192,#230,.T.);
#159=EDGE_CURVE('',#191,#193,#231,.T.);
#160=EDGE_CURVE('',#192,#181,#232,.T.);
#161=EDGE_CURVE('',#193,#183,#233,.T.);
#162=EDGE_CURVE('',#194,#194,#20,.T.);
#163=EDGE_CURVE('',#195,#195,#21,.T.);
#164=VERTEX_POINT('',#515);
#165=VERTEX_POINT('',#516);
#166=VERTEX_POINT('',#518);
#167=VERTEX_POINT('',#520);
#168=VERTEX_POINT('',#524);
#169=VERTEX_POINT('',#526);
#170=VERTEX_POINT('',#530);
#171=VERTEX_POINT('',#532);
#172=VERTEX_POINT('',#536);
#173=VERTEX_POINT('',#538);
#174=VERTEX_POINT('',#542);
#175=VERTEX_POINT('',#544);
#176=VERTEX_POINT('',#548);
#177=VERTEX_POINT('',#550);
#178=VERTEX_POINT('',#557);
#179=VERTEX_POINT('',#559);
#180=VERTEX_POINT('',#565);
#181=VERTEX_POINT('',#566);
#182=VERTEX_POINT('',#568);
#183=VERTEX_POINT('',#570);
#184=VERTEX_POINT('',#574);
#185=VERTEX_POINT('',#576);
#186=VERTEX_POINT('',#580);
#187=VERTEX_POINT('',#582);
#188=VERTEX_POINT('',#586);
#189=VERTEX_POINT('',#588);
#190=VERTEX_POINT('',#592);
#191=VERTEX_POINT('',#594);
#192=VERTEX_POINT('',#598);
#193=VERTEX_POINT('',#600);
#194=VERTEX_POINT('',#607);
#195=VERTEX_POINT('',#609);
#196=LINE('',#514,#234);
#197=LINE('',#517,#235);
#198=LINE('',#519,#236);
#199=LINE('',#521,#237);
#200=LINE('',#523,#238);
#201=LINE('',#525,#239);
#202=LINE('',#527,#240);
#203=LINE('',#529,#241);
#204=LINE('',#531,#242);
#205=LINE('',#533,#243);
#206=LINE('',#537,#244);
#207=LINE('',#541,#245);
#208=LINE('',#543,#246);
#209=LINE('',#545,#247);
#210=LINE('',#547,#248);
#211=LINE('',#549,#249);
#212=LINE('',#551,#250);
#213=LINE('',#553,#251);
#214=LINE('',#554,#252);
#215=LINE('',#564,#253);
#216=LINE('',#567,#254);
#217=LINE('',#569,#255);
#218=LINE('',#571,#256);
#219=LINE('',#573,#257);
#220=LINE('',#575,#258);
#221=LINE('',#577,#259);
#222=LINE('',#579,#260);
#223=LINE('',#581,#261);
#224=LINE('',#583,#262);
#225=LINE('',#587,#263);
#226=LINE('',#591,#264);
#227=LINE('',#593,#265);
#228=LINE('',#595,#266);
#229=LINE('',#597,#267);
#230=LINE('',#599,#268);
#231=LINE('',#601,#269);
#232=LINE('',#603,#270);
#233=LINE('',#604,#271);
#234=VECTOR('',#418,1.);
#235=VECTOR('',#419,1.);
#236=VECTOR('',#420,1.);
#237=VECTOR('',#421,1.);
#238=VECTOR('',#424,1.);
#239=VECTOR('',#425,1.);
#240=VECTOR('',#426,1.);
#241=VECTOR('',#429,1.);
#242=VECTOR('',#430,1.);
#243=VECTOR('',#431,1.);
#244=VECTOR('',#436,1.);
#245=VECTOR('',#441,1.);
#246=VECTOR('',#442,1.);
#247=VECTOR('',#443,1.);
#248=VECTOR('',#446,1.);
#249=VECTOR('',#447,1.);
#250=VECTOR('',#448,1.);
#251=VECTOR('',#451,1.);
#252=VECTOR('',#452,1.);
#253=VECTOR('',#467,1.);
#254=VECTOR('',#468,1.);
#255=VECTOR('',#469,1.);
#256=VECTOR('',#470,1.);
#257=VECTOR('',#473,1.);
#258=VECTOR('',#474,1.);
#259=VECTOR('',#475,1.);
#260=VECTOR('',#478,1.);
#261=VECTOR('',#479,1.);
#262=VECTOR('',#480,1.);
#263=VECTOR('',#485,1.);
#264=VECTOR('',#490,1.);
#265=VECTOR('',#491,1.);
#266=VECTOR('',#492,1.);
#267=VECTOR('',#495,1.);
#268=VECTOR('',#496,1.);
#269=VECTOR('',#497,1.);
#270=VECTOR('',#500,1.);
#271=VECTOR('',#501,1.);
#272=EDGE_LOOP('',(#26,#27,#28,#29));
#273=EDGE_LOOP('',(#30,#31,#32,#33));
#274=EDGE_LOOP('',(#34,#35,#36,#37));
#275=EDGE_LOOP('',(#38,#39,#40,#41));
#276=EDGE_LOOP('',(#42,#43,#44,#45));
#277=EDGE_LOOP('',(#46,#47,#48,#49));
#278=EDGE_LOOP('',(#50,#51,#52,#53));
#279=EDGE_LOOP('',(#54));
#280=EDGE_LOOP('',(#55));
#281=EDGE_LOOP('',(#56,#57,#58,#59,#60,#61,#62));
#282=EDGE_LOOP('',(#63));
#283=EDGE_LOOP('',(#64,#65,#66,#67,#68,#69,#70));
#284=EDGE_LOOP('',(#71));
#285=EDGE_LOOP('',(#72,#73,#74,#75));
#286=EDGE_LOOP('',(#76,#77,#78,#79));
#287=EDGE_LOOP('',(#80,#81,#82,#83));
#288=EDGE_LOOP('',(#84,#85,#86,#87));
#289=EDGE_LOOP('',(#88,#89,#90,#91));
#290=EDGE_LOOP('',(#92,#93,#94,#95));
#291=EDGE_LOOP('',(#96,#97,#98,#99));
#292=EDGE_LOOP('',(#100));
#293=EDGE_LOOP('',(#101));
#294=EDGE_LOOP('',(#102,#103,#104,#105,#106,#107,#108));
#295=EDGE_LOOP('',(#109));
#296=EDGE_LOOP('',(#110,#111,#112,#113,#114,#115,#116));
#297=EDGE_LOOP('',(#117));
#298=FACE_BOUND('',#272,.T.);
#299=FACE_BOUND('',#273,.T.);
#300=FACE_BOUND('',#274,.T.);
#301=FACE_BOUND('',#275,.T.);
#302=FACE_BOUND('',#276,.T.);
#303=FACE_BOUND('',#277,.T.);
#304=FACE_BOUND('',#278,.T.);
#305=FACE_BOUND('',#279,.T.);
#306=FACE_BOUND('',#280,.T.);
#307=FACE_BOUND('',#281,.T.);
#308=FACE_BOUND('',#282,.T.);
#309=FACE_BOUND('',#283,.T.);
#310=FACE_BOUND('',#284,.T.);
#311=FACE_BOUND('',#285,.T.);
#312=FACE_BOUND('',#286,.T.);
#313=FACE_BOUND('',#287,.T.);
#314=FACE_BOUND('',#288,.T.);
#315=FACE_BOUND('',#289,.T.);
#316=FACE_BOUND('',#290,.T.);
#317=FACE_BOUND('',#291,.T.);
#318=FACE_BOUND('',#292,.T.);
#319=FACE_BOUND('',#293,.T.);
#320=FACE_BOUND('',#294,.T.);
#321=FACE_BOUND('',#295,.T.);
#322=FACE_BOUND('',#296,.T.);
#323=FACE_BOUND('',#297,.T.);
#324=PLANE('',#385);
#325=PLANE('',#386);
#326=PLANE('',#387);
#327=PLANE('',#391);
#328=PLANE('',#392);
#329=PLANE('',#393);
#330=PLANE('',#397);
#331=PLANE('',#398);
#332=PLANE('',#400);
#333=PLANE('',#401);
#334=PLANE('',#402);
#335=PLANE('',#406);
#336=PLANE('',#407);
#337=PLANE('',#408);
#338=PLANE('',#412);
#339=PLANE('',#413);
#340=ADVANCED_FACE('',(#298),#324,.T.);
#341=ADVANCED_FACE('',(#299),#325,.T.);
#342=ADVANCED_FACE('',(#300),#326,.T.);
#343=ADVANCED_FACE('',(#301),#22,.T.);
#344=ADVANCED_FACE('',(#302),#327,.F.);
#345=ADVANCED_FACE('',(#303),#328,.F.);
#346=ADVANCED_FACE('',(#304),#329,.T.);
#347=ADVANCED_FACE('',(#305,#306),#23,.F.);
#348=ADVANCED_FACE('',(#307,#308),#330,.T.);
#349=ADVANCED_FACE('',(#309,#310),#331,.F.);
#350=ADVANCED_FACE('',(#311),#332,.T.);
#351=ADVANCED_FACE('',(#312),#333,.T.);
#352=ADVANCED_FACE('',(#313),#334,.T.);
#353=ADVANCED_FACE('',(#314),#24,.T.);
#354=ADVANCED_FACE('',(#315),#335,.F.);
#355=ADVANCED_FACE('',(#316),#336,.F.);
#356=ADVANCED_FACE('',(#317),#337,.F.);
#357=ADVANCED_FACE('',(#318,#319),#25,.F.);
#358=ADVANCED_FACE('',(#320,#321),#338,.T.);
#359=ADVANCED_FACE('',(#322,#323),#339,.F.);
#360=CLOSED_SHELL('',(#340,#341,#342,#343,#344,#345,#346,#347,#348,#349));
#361=CLOSED_SHELL('',(#350,#351,#352,#353,#354,#355,#356,#357,#358,#359));
#362=STYLED_ITEM('',(#364),#378);
#363=STYLED_ITEM('',(#365),#379);
#364=PRESENTATION_STYLE_ASSIGNMENT((#366));
#365=PRESENTATION_STYLE_ASSIGNMENT((#367));
#366=SURFACE_STYLE_USAGE(.BOTH.,#368);
#367=SURFACE_STYLE_USAGE(.BOTH.,#369);
#368=SURFACE_SIDE_STYLE('',(#370));
#369=SURFACE_SIDE_STYLE('',(#371));
#370=FILL_AREA_STYLE('',(#372));
#371=FILL_AREA_STYLE('',(#373));
#372=FILL_AREA_STYLE_COLOUR('',#374);
#373=FILL_AREA_STYLE_COLOUR('',#375);
#374=COLOUR_RGB('',0.615686274509804,0.811764705882353,0.929411764705882);
#375=COLOUR_RGB('',0.647058823529412,0.647058823529412,0.647058823529412);
#378=MANIFOLD_SOLID_BREP('Part 1',#360);
#379=MANIFOLD_SOLID_BREP('Part 2',#361);
#380=SHAPE_DEFINITION_REPRESENTATION(#624,#382);
#381=SHAPE_DEFINITION_REPRESENTATION(#625,#383);
#382=SHAPE_REPRESENTATION('Part 1',(#384),#614);
#383=SHAPE_REPRESENTATION('Part 2',(#399),#615);
#384=AXIS2_PLACEMENT_3D('',#512,#414,#415);
#385=AXIS2_PLACEMENT_3D('',#513,#416,#417);
#386=AXIS2_PLACEMENT_3D('',#522,#422,#423);
#387=AXIS2_PLACEMENT_3D('',#528,#427,#428);
#388=AXIS2_PLACEMENT_3D('',#534,#432,#433);
#389=AXIS2_PLACEMENT_3D('',#535,#434,#435);
#390=AXIS2_PLACEMENT_3D('',#539,#437,#438);
#391=AXIS2_PLACEMENT_3D('',#540,#439,#440);
#392=AXIS2_PLACEMENT_3D('',#546,#444,#445);
#393=AXIS2_PLACEMENT_3D('',#552,#449,#450);
#394=AXIS2_PLACEMENT_3D('',#555,#453,#454);
#395=AXIS2_PLACEMENT_3D('',#556,#455,#456);
#396=AXIS2_PLACEMENT_3D('',#558,#457,#458);
#397=AXIS2_PLACEMENT_3D('',#560,#459,#460);
#398=AXIS2_PLACEMENT_3D('',#561,#461,#462);
#399=AXIS2_PLACEMENT_3D('',#562,#463,#464);
#400=AXIS2_PLACEMENT_3D('',#563,#465,#466);
#401=AXIS2_PLACEMENT_3D('',#572,#471,#472);
#402=AXIS2_PLACEMENT_3D('',#578,#476,#477);
#403=AXIS2_PLACEMENT_3D('',#584,#481,#482);
#404=AXIS2_PLACEMENT_3D('',#585,#483,#484);
#405=AXIS2_PLACEMENT_3D('',#589,#486,#487);
#406=AXIS2_PLACEMENT_3D('',#590,#488,#489);
#407=AXIS2_PLACEMENT_3D('',#596,#493,#494);
#408=AXIS2_PLACEMENT_3D('',#602,#498,#499);
#409=AXIS2_PLACEMENT_3D('',#605,#502,#503);
#410=AXIS2_PLACEMENT_3D('',#606,#504,#505);
#411=AXIS2_PLACEMENT_3D('',#608,#506,#507);
#412=AXIS2_PLACEMENT_3D('',#610,#508,#509);
#413=AXIS2_PLACEMENT_3D('',#611,#510,#511);
#414=DIRECTION('',(0.,0.,1.));
#415=DIRECTION('',(1.,0.,0.));
#416=DIRECTION('',(-1.,0.,0.));
#417=DIRECTION('',(0.,0.,1.));
#418=DIRECTION('',(0.,1.,0.));
#419=DIRECTION('',(0.,0.,-1.));
#420=DIRECTION('',(0.,1.,0.));
#421=DIRECTION('',(0.,0.,-1.));
#422=DIRECTION('',(-9.251858538543E-16,-1.,0.));
#423=DIRECTION('',(1.,-9.251858538543E-16,0.));
#424=DIRECTION('',(-1.,9.251858538543E-16,0.));
#425=DIRECTION('',(0.,0.,-1.));
#426=DIRECTION('',(-1.,9.251858538543E-16,0.));
#427=DIRECTION('',(1.,-1.38777878078145E-15,0.));
#428=DIRECTION('',(1.38777878078145E-15,1.,0.));
#429=DIRECTION('',(-1.38777878078145E-15,-1.,0.));
#430=DIRECTION('',(0.,0.,-1.));
#431=DIRECTION('',(-1.38777878078145E-15,-1.,0.));
#432=DIRECTION('',(0.,0.,-1.));
#433=DIRECTION('',(-1.,0.,0.));
#434=DIRECTION('',(0.,0.,-1.));
#435=DIRECTION('',(-1.14897288864899E-15,1.,0.));
#436=DIRECTION('',(0.,0.,-1.));
#437=DIRECTION('',(0.,0.,-1.));
#438=DIRECTION('',(-1.14897288864899E-15,1.,0.));
#439=DIRECTION('',(0.,-1.,0.));
#440=DIRECTION('',(0.,0.,-1.));
#441=DIRECTION('',(-1.,0.,0.));
#442=DIRECTION('',(0.,0.,-1.));
#443=DIRECTION('',(-1.,0.,0.));
#444=DIRECTION('',(1.,0.,0.));
#445=DIRECTION('',(0.,0.,-1.));
#446=DIRECTION('',(0.,-1.,0.));
#447=DIRECTION('',(0.,0.,-1.));
#448=DIRECTION('',(0.,-1.,0.));
#449=DIRECTION('',(0.,-1.,0.));
#450=DIRECTION('',(0.,0.,-1.));
#451=DIRECTION('',(-1.,0.,0.));
#452=DIRECTION('',(-1.,0.,0.));
#453=DIRECTION('',(0.,0.,-1.));
#454=DIRECTION('',(-1.,0.,0.));
#455=DIRECTION('',(0.,0.,1.));
#456=DIRECTION('',(-1.,0.,0.));
#457=DIRECTION('',(0.,0.,1.));
#458=DIRECTION('',(-1.,0.,0.));
#459=DIRECTION('',(0.,0.,1.));
#460=DIRECTION('',(1.,0.,0.));
#461=DIRECTION('',(0.,0.,1.));
#462=DIRECTION('',(1.,0.,0.));
#463=DIRECTION('',(0.,0.,1.));
#464=DIRECTION('',(1.,0.,0.));
#465=DIRECTION('',(0.,-1.,0.));
#466=DIRECTION('',(0.,0.,-1.));
#467=DIRECTION('',(-1.,0.,0.));
#468=DIRECTION('',(0.,0.,-1.));
#469=DIRECTION('',(-1.,0.,0.));
#470=DIRECTION('',(0.,0.,-1.));
#471=DIRECTION('',(1.,0.,0.));
#472=DIRECTION('',(0.,0.,-1.));
#473=DIRECTION('',(0.,-1.,0.));
#474=DIRECTION('',(0.,0.,-1.));
#475=DIRECTION('',(0.,-1.,0.));
#476=DIRECTION('',(0.,1.,0.));
#477=DIRECTION('',(0.,0.,1.));
#478=DIRECTION('',(1.,0.,0.));
#479=DIRECTION('',(0.,0.,-1.));
#480=DIRECTION('',(1.,0.,0.));
#481=DIRECTION('',(0.,0.,-1.));
#482=DIRECTION('',(-1.,0.,0.));
#483=DIRECTION('',(0.,0.,1.));
#484=DIRECTION('',(1.14897288864899E-15,1.,0.));
#485=DIRECTION('',(0.,0.,-1.));
#486=DIRECTION('',(0.,0.,1.));
#487=DIRECTION('',(1.14897288864899E-15,1.,0.));
#488=DIRECTION('',(1.,1.38777878078145E-15,0.));
#489=DIRECTION('',(-1.38777878078145E-15,1.,0.));
#490=DIRECTION('',(1.38777878078145E-15,-1.,0.));
#491=DIRECTION('',(0.,0.,-1.));
#492=DIRECTION('',(1.38777878078145E-15,-1.,0.));
#493=DIRECTION('',(-9.251858538543E-16,1.,0.));
#494=DIRECTION('',(-1.,-9.251858538543E-16,0.));
#495=DIRECTION('',(1.,9.251858538543E-16,0.));
#496=DIRECTION('',(0.,0.,-1.));
#497=DIRECTION('',(1.,9.251858538543E-16,0.));
#498=DIRECTION('',(-1.,0.,0.));
#499=DIRECTION('',(0.,0.,1.));
#500=DIRECTION('',(0.,1.,0.));
#501=DIRECTION('',(0.,1.,0.));
#502=DIRECTION('',(0.,0.,-1.));
#503=DIRECTION('',(-1.,0.,0.));
#504=DIRECTION('',(0.,0.,1.));
#505=DIRECTION('',(1.,0.,0.));
#506=DIRECTION('',(0.,0.,1.));
#507=DIRECTION('',(1.,0.,0.));
#508=DIRECTION('',(0.,0.,1.));
#509=DIRECTION('',(1.,0.,0.));
#510=DIRECTION('',(0.,0.,1.));
#511=DIRECTION('',(1.,0.,0.));
#512=CARTESIAN_POINT('',(0.,0.,0.));
#513=CARTESIAN_POINT('',(0.123,0.0604215706959522,0.005));
#514=CARTESIAN_POINT('',(0.123,0.0604215706959522,0.));
#515=CARTESIAN_POINT('',(0.123,0.0458431413919043,0.));
#516=CARTESIAN_POINT('',(0.123,0.075,0.));
#517=CARTESIAN_POINT('',(0.123,0.0458431413919043,0.005));
#518=CARTESIAN_POINT('',(0.123,0.0458431413919043,0.005));
#519=CARTESIAN_POINT('',(0.123,0.0604215706959522,0.005));
#520=CARTESIAN_POINT('',(0.123,0.075,0.005));
#521=CARTESIAN_POINT('',(0.123,0.075,0.005));
#522=CARTESIAN_POINT('',(0.1305,0.0458431413919043,0.005));
#523=CARTESIAN_POINT('',(0.1305,0.0458431413919043,0.));
#524=CARTESIAN_POINT('',(0.138,0.0458431413919043,0.));
#525=CARTESIAN_POINT('',(0.138,0.0458431413919043,0.005));
#526=CARTESIAN_POINT('',(0.138,0.0458431413919043,0.005));
#527=CARTESIAN_POINT('',(0.1305,0.0458431413919043,0.005));
#528=CARTESIAN_POINT('',(0.138,0.0558431413919043,0.005));
#529=CARTESIAN_POINT('',(0.138,0.0558431413919043,0.));
#530=CARTESIAN_POINT('',(0.138,0.0658431413919043,0.));
#531=CARTESIAN_POINT('',(0.138,0.0658431413919043,0.005));
#532=CARTESIAN_POINT('',(0.138,0.0658431413919043,0.005));
#533=CARTESIAN_POINT('',(0.138,0.0558431413919043,0.005));
#534=CARTESIAN_POINT('',(0.113843141391904,0.0658431413919043,0.005));
#535=CARTESIAN_POINT('',(0.113843141391904,0.0658431413919043,0.));
#536=CARTESIAN_POINT('',(0.113843141391904,0.09,0.));
#537=CARTESIAN_POINT('',(0.113843141391904,0.09,0.005));
#538=CARTESIAN_POINT('',(0.113843141391904,0.09,0.005));
#539=CARTESIAN_POINT('',(0.113843141391904,0.0658431413919043,0.005));
#540=CARTESIAN_POINT('',(0.103843141391904,0.09,0.005));
#541=CARTESIAN_POINT('',(0.103843141391904,0.09,0.));
#542=CARTESIAN_POINT('',(0.0938431413919043,0.09,0.));
#543=CARTESIAN_POINT('',(0.0938431413919043,0.09,0.005));
#544=CARTESIAN_POINT('',(0.0938431413919043,0.09,0.005));
#545=CARTESIAN_POINT('',(0.103843141391904,0.09,0.005));
#546=CARTESIAN_POINT('',(0.0938431413919043,0.0825,0.005));
#547=CARTESIAN_POINT('',(0.0938431413919043,0.0825,0.));
#548=CARTESIAN_POINT('',(0.0938431413919043,0.075,0.));
#549=CARTESIAN_POINT('',(0.0938431413919043,0.075,0.005));
#550=CARTESIAN_POINT('',(0.0938431413919043,0.075,0.005));
#551=CARTESIAN_POINT('',(0.0938431413919043,0.0825,0.005));
#552=CARTESIAN_POINT('',(0.108421570695952,0.075,0.005));
#553=CARTESIAN_POINT('',(0.108421570695952,0.075,0.));
#554=CARTESIAN_POINT('',(0.108421570695952,0.075,0.005));
#555=CARTESIAN_POINT('',(0.125,0.0776306763291359,0.005));
#556=CARTESIAN_POINT('',(0.125,0.0776306763291359,0.005));
#557=CARTESIAN_POINT('',(0.123,0.0776306763291359,0.005));
#558=CARTESIAN_POINT('',(0.125,0.0776306763291359,0.));
#559=CARTESIAN_POINT('',(0.123,0.0776306763291359,0.));
#560=CARTESIAN_POINT('',(0.,0.,0.005));
#561=CARTESIAN_POINT('',(0.,0.,0.));
#562=CARTESIAN_POINT('',(0.,0.,0.));
#563=CARTESIAN_POINT('',(-0.108421570695952,0.075,0.005));
#564=CARTESIAN_POINT('',(-0.108421570695952,0.075,0.));
#565=CARTESIAN_POINT('',(-0.0938431413919043,0.075,0.));
#566=CARTESIAN_POINT('',(-0.123,0.075,0.));
#567=CARTESIAN_POINT('',(-0.0938431413919043,0.075,0.005));
#568=CARTESIAN_POINT('',(-0.0938431413919043,0.075,0.005));
#569=CARTESIAN_POINT('',(-0.108421570695952,0.075,0.005));
#570=CARTESIAN_POINT('',(-0.123,0.075,0.005));
#571=CARTESIAN_POINT('',(-0.123,0.075,0.005));
#572=CARTESIAN_POINT('',(-0.0938431413919043,0.0825,0.005));
#573=CARTESIAN_POINT('',(-0.0938431413919043,0.0825,0.));
#574=CARTESIAN_POINT('',(-0.0938431413919043,0.09,0.));
#575=CARTESIAN_POINT('',(-0.0938431413919043,0.09,0.005));
#576=CARTESIAN_POINT('',(-0.0938431413919043,0.09,0.005));
#577=CARTESIAN_POINT('',(-0.0938431413919043,0.0825,0.005));
#578=CARTESIAN_POINT('',(-0.103843141391904,0.09,0.005));
#579=CARTESIAN_POINT('',(-0.103843141391904,0.09,0.));
#580=CARTESIAN_POINT('',(-0.113843141391904,0.09,0.));
#581=CARTESIAN_POINT('',(-0.113843141391904,0.09,0.005));
#582=CARTESIAN_POINT('',(-0.113843141391904,0.09,0.005));
#583=CARTESIAN_POINT('',(-0.103843141391904,0.09,0.005));
#584=CARTESIAN_POINT('',(-0.113843141391904,0.0658431413919043,0.005));
#585=CARTESIAN_POINT('',(-0.113843141391904,0.0658431413919043,0.));
#586=CARTESIAN_POINT('',(-0.138,0.0658431413919043,0.));
#587=CARTESIAN_POINT('',(-0.138,0.0658431413919043,0.005));
#588=CARTESIAN_POINT('',(-0.138,0.0658431413919043,0.005));
#589=CARTESIAN_POINT('',(-0.113843141391904,0.0658431413919043,0.005));
#590=CARTESIAN_POINT('',(-0.138,0.0558431413919043,0.005));
#591=CARTESIAN_POINT('',(-0.138,0.0558431413919043,0.));
#592=CARTESIAN_POINT('',(-0.138,0.0458431413919043,0.));
#593=CARTESIAN_POINT('',(-0.138,0.0458431413919043,0.005));
#594=CARTESIAN_POINT('',(-0.138,0.0458431413919043,0.005));
#595=CARTESIAN_POINT('',(-0.138,0.0558431413919043,0.005));
#596=CARTESIAN_POINT('',(-0.1305,0.0458431413919043,0.005));
#597=CARTESIAN_POINT('',(-0.1305,0.0458431413919043,0.));
#598=CARTESIAN_POINT('',(-0.123,0.0458431413919043,0.));
#599=CARTESIAN_POINT('',(-0.123,0.0458431413919043,0.005));
#600=CARTESIAN_POINT('',(-0.123,0.0458431413919043,0.005));
#601=CARTESIAN_POINT('',(-0.1305,0.0458431413919043,0.005));
#602=CARTESIAN_POINT('',(-0.123,0.0558431413919043,0.005));
#603=CARTESIAN_POINT('',(-0.123,0.0558431413919043,0.));
#604=CARTESIAN_POINT('',(-0.123,0.0558431413919043,0.005));
#605=CARTESIAN_POINT('',(-0.125,0.0776306763291359,0.005));
#606=CARTESIAN_POINT('',(-0.125,0.0776306763291359,0.005));
#607=CARTESIAN_POINT('',(-0.123,0.0776306763291359,0.005));
#608=CARTESIAN_POINT('',(-0.125,0.0776306763291359,0.));
#609=CARTESIAN_POINT('',(-0.123,0.0776306763291359,0.));
#610=CARTESIAN_POINT('',(0.,0.,0.005));
#611=CARTESIAN_POINT('',(0.,0.,0.));
#612=MECHANICAL_DESIGN_GEOMETRIC_PRESENTATION_REPRESENTATION('',(#362),#614);
#613=MECHANICAL_DESIGN_GEOMETRIC_PRESENTATION_REPRESENTATION('',(#363),#615);
#614=(
GEOMETRIC_REPRESENTATION_CONTEXT(3)
GLOBAL_UNCERTAINTY_ASSIGNED_CONTEXT((#616))
GLOBAL_UNIT_ASSIGNED_CONTEXT((#622,#620,#618))
REPRESENTATION_CONTEXT('Part 1','TOP_LEVEL_ASSEMBLY_PART')
);
#615=(
GEOMETRIC_REPRESENTATION_CONTEXT(3)
GLOBAL_UNCERTAINTY_ASSIGNED_CONTEXT((#617))
GLOBAL_UNIT_ASSIGNED_CONTEXT((#623,#621,#619))
REPRESENTATION_CONTEXT('Part 2','TOP_LEVEL_ASSEMBLY_PART')
);
#616=UNCERTAINTY_MEASURE_WITH_UNIT(LENGTH_MEASURE(1.E-8),#622,
'DISTANCE_ACCURACY_VALUE','Maximum Tolerance applied to model');
#617=UNCERTAINTY_MEASURE_WITH_UNIT(LENGTH_MEASURE(1.E-8),#623,
'DISTANCE_ACCURACY_VALUE','Maximum Tolerance applied to model');
#618=(
NAMED_UNIT(*)
SI_UNIT($,.STERADIAN.)
SOLID_ANGLE_UNIT()
);
#619=(
NAMED_UNIT(*)
SI_UNIT($,.STERADIAN.)
SOLID_ANGLE_UNIT()
);
#620=(
NAMED_UNIT(*)
PLANE_ANGLE_UNIT()
SI_UNIT($,.RADIAN.)
);
#621=(
NAMED_UNIT(*)
PLANE_ANGLE_UNIT()
SI_UNIT($,.RADIAN.)
);
#622=(
LENGTH_UNIT()
NAMED_UNIT(*)
SI_UNIT($,.METRE.)
);
#623=(
LENGTH_UNIT()
NAMED_UNIT(*)
SI_UNIT($,.METRE.)
);
#624=PRODUCT_DEFINITION_SHAPE('','',#626);
#625=PRODUCT_DEFINITION_SHAPE('','',#627);
#626=PRODUCT_DEFINITION('','',#630,#628);
#627=PRODUCT_DEFINITION('','',#631,#629);
#628=PRODUCT_DEFINITION_CONTEXT('',#642,'design');
#629=PRODUCT_DEFINITION_CONTEXT('',#643,'design');
#630=PRODUCT_DEFINITION_FORMATION_WITH_SPECIFIED_SOURCE('','',#634,
 .NOT_KNOWN.);
#631=PRODUCT_DEFINITION_FORMATION_WITH_SPECIFIED_SOURCE('','',#635,
 .NOT_KNOWN.);
#632=PRODUCT_RELATED_PRODUCT_CATEGORY('','',(#634));
#633=PRODUCT_RELATED_PRODUCT_CATEGORY('','',(#635));
#634=PRODUCT('Part 1','Part 1','Part 1',(#638));
#635=PRODUCT('Part 2','Part 2','Part 2',(#639));
#636=PRODUCT_CATEGORY('','');
#637=PRODUCT_CATEGORY('','');
#638=PRODUCT_CONTEXT('',#642,'mechanical');
#639=PRODUCT_CONTEXT('',#643,'mechanical');
#640=APPLICATION_PROTOCOL_DEFINITION('international standard',
'ap242_managed_model_based_3d_engineering',2020,#642);
#641=APPLICATION_PROTOCOL_DEFINITION('international standard',
'ap242_managed_model_based_3d_engineering',2020,#643);
#642=APPLICATION_CONTEXT('managed model based 3d engineering');
#643=APPLICATION_CONTEXT('managed model based 3d engineering');
ENDSEC;
END-ISO-10303-21;
