ISO-10303-21;
HEADER;
/* Generated by software containing ST-Developer
 * from STEP Tools, Inc. (www.steptools.com) 
 */
/* OPTION: using custom renumber hook */

FILE_DESCRIPTION(
/* description */ ('STEP AP242 Edition 2',
'CAx-IF Rec.Pracs.---Representation and Presentation of Product Manufa
cturing Information (PMI)---4.0---2014-10-13',
'CAx-IF Rec.Pracs.---3D Tessellated Geometry---0.4---2014-09-14','2;1',
'CAx-IF Rec.Pracs.---User Defined Attributes---1.5---2016-08-15'),
/* implementation_level */ '2;1');

FILE_NAME(
/* name */ 'MIDDLE',
/* time_stamp */ '2026-10-04T20:45:05Z',
/* author */ ('') ,
/* organization */ ('') ,
/* preprocessor_version */ 'ST-DEVELOPER v20',
/* originating_system */ 'ONSHAPE BY PTC INC, 1.221',
/* authorisation */ '  ');

FILE_SCHEMA (('AP242_MANAGED_MODEL_BASED_3D_ENGINEERING_MIM_LF { 1 0 10303 442 3 1 4 }'));
ENDSEC;

DATA;
#10=SHAPE_REPRESENTATION_RELATIONSHIP('','',#473,#11);
#11=ADVANCED_BREP_SHAPE_REPRESENTATION('',(#471),#791);
#12=CIRCLE('',#477,0.0241568586080958);
#13=CIRCLE('',#478,0.0241568586080958);
#14=CIRCLE('',#482,0.00121939253807066);
#15=CIRCLE('',#483,0.00121939253807066);
#16=CIRCLE('',#486,0.00121939253807066);
#17=CIRCLE('',#487,0.00121939253807066);
#18=CIRCLE('',#491,0.0241568586080958);
#19=CIRCLE('',#492,0.0241568586080958);
#20=CIRCLE('',#495,0.01);
#21=CIRCLE('',#496,0.01);
#22=CIRCLE('',#499,0.0241568586080958);
#23=CIRCLE('',#500,0.0241568586080958);
#24=CIRCLE('',#503,0.0241568586080958);
#25=CIRCLE('',#504,0.0241568586080958);
#26=CIRCLE('',#507,0.002);
#27=CIRCLE('',#508,0.002);
#28=CIRCLE('',#510,0.002);
#29=CIRCLE('',#511,0.002);
#30=CIRCLE('',#513,0.002);
#31=CIRCLE('',#514,0.002);
#32=CIRCLE('',#516,0.01);
#33=CIRCLE('',#517,0.01);
#34=CIRCLE('',#519,0.002);
#35=CIRCLE('',#520,0.002);
#36=CYLINDRICAL_SURFACE('',#476,0.0241568586080958);
#37=CYLINDRICAL_SURFACE('',#481,0.00121939253807066);
#38=CYLINDRICAL_SURFACE('',#485,0.00121939253807066);
#39=CYLINDRICAL_SURFACE('',#490,0.0241568586080958);
#40=CYLINDRICAL_SURFACE('',#494,0.01);
#41=CYLINDRICAL_SURFACE('',#498,0.0241568586080958);
#42=CYLINDRICAL_SURFACE('',#502,0.0241568586080958);
#43=CYLINDRICAL_SURFACE('',#506,0.002);
#44=CYLINDRICAL_SURFACE('',#509,0.002);
#45=CYLINDRICAL_SURFACE('',#512,0.002);
#46=CYLINDRICAL_SURFACE('',#515,0.01);
#47=CYLINDRICAL_SURFACE('',#518,0.002);
#48=ORIENTED_EDGE('',*,*,#172,.T.);
#49=ORIENTED_EDGE('',*,*,#173,.F.);
#50=ORIENTED_EDGE('',*,*,#174,.F.);
#51=ORIENTED_EDGE('',*,*,#175,.T.);
#52=ORIENTED_EDGE('',*,*,#176,.T.);
#53=ORIENTED_EDGE('',*,*,#177,.F.);
#54=ORIENTED_EDGE('',*,*,#178,.F.);
#55=ORIENTED_EDGE('',*,*,#173,.T.);
#56=ORIENTED_EDGE('',*,*,#179,.T.);
#57=ORIENTED_EDGE('',*,*,#180,.F.);
#58=ORIENTED_EDGE('',*,*,#181,.F.);
#59=ORIENTED_EDGE('',*,*,#177,.T.);
#60=ORIENTED_EDGE('',*,*,#182,.F.);
#61=ORIENTED_EDGE('',*,*,#183,.F.);
#62=ORIENTED_EDGE('',*,*,#184,.T.);
#63=ORIENTED_EDGE('',*,*,#180,.T.);
#64=ORIENTED_EDGE('',*,*,#185,.T.);
#65=ORIENTED_EDGE('',*,*,#186,.F.);
#66=ORIENTED_EDGE('',*,*,#187,.F.);
#67=ORIENTED_EDGE('',*,*,#183,.T.);
#68=ORIENTED_EDGE('',*,*,#188,.F.);
#69=ORIENTED_EDGE('',*,*,#189,.F.);
#70=ORIENTED_EDGE('',*,*,#190,.T.);
#71=ORIENTED_EDGE('',*,*,#186,.T.);
#72=ORIENTED_EDGE('',*,*,#191,.F.);
#73=ORIENTED_EDGE('',*,*,#192,.F.);
#74=ORIENTED_EDGE('',*,*,#193,.T.);
#75=ORIENTED_EDGE('',*,*,#189,.T.);
#76=ORIENTED_EDGE('',*,*,#194,.T.);
#77=ORIENTED_EDGE('',*,*,#195,.F.);
#78=ORIENTED_EDGE('',*,*,#196,.F.);
#79=ORIENTED_EDGE('',*,*,#192,.T.);
#80=ORIENTED_EDGE('',*,*,#197,.T.);
#81=ORIENTED_EDGE('',*,*,#198,.F.);
#82=ORIENTED_EDGE('',*,*,#199,.F.);
#83=ORIENTED_EDGE('',*,*,#195,.T.);
#84=ORIENTED_EDGE('',*,*,#200,.T.);
#85=ORIENTED_EDGE('',*,*,#201,.F.);
#86=ORIENTED_EDGE('',*,*,#202,.F.);
#87=ORIENTED_EDGE('',*,*,#198,.T.);
#88=ORIENTED_EDGE('',*,*,#203,.F.);
#89=ORIENTED_EDGE('',*,*,#204,.F.);
#90=ORIENTED_EDGE('',*,*,#205,.T.);
#91=ORIENTED_EDGE('',*,*,#201,.T.);
#92=ORIENTED_EDGE('',*,*,#206,.F.);
#93=ORIENTED_EDGE('',*,*,#207,.F.);
#94=ORIENTED_EDGE('',*,*,#208,.T.);
#95=ORIENTED_EDGE('',*,*,#204,.T.);
#96=ORIENTED_EDGE('',*,*,#209,.F.);
#97=ORIENTED_EDGE('',*,*,#210,.F.);
#98=ORIENTED_EDGE('',*,*,#211,.T.);
#99=ORIENTED_EDGE('',*,*,#207,.T.);
#100=ORIENTED_EDGE('',*,*,#212,.T.);
#101=ORIENTED_EDGE('',*,*,#213,.F.);
#102=ORIENTED_EDGE('',*,*,#214,.F.);
#103=ORIENTED_EDGE('',*,*,#210,.T.);
#104=ORIENTED_EDGE('',*,*,#215,.F.);
#105=ORIENTED_EDGE('',*,*,#216,.F.);
#106=ORIENTED_EDGE('',*,*,#217,.T.);
#107=ORIENTED_EDGE('',*,*,#213,.T.);
#108=ORIENTED_EDGE('',*,*,#218,.T.);
#109=ORIENTED_EDGE('',*,*,#219,.F.);
#110=ORIENTED_EDGE('',*,*,#220,.F.);
#111=ORIENTED_EDGE('',*,*,#216,.T.);
#112=ORIENTED_EDGE('',*,*,#221,.T.);
#113=ORIENTED_EDGE('',*,*,#222,.F.);
#114=ORIENTED_EDGE('',*,*,#223,.F.);
#115=ORIENTED_EDGE('',*,*,#219,.T.);
#116=ORIENTED_EDGE('',*,*,#224,.T.);
#117=ORIENTED_EDGE('',*,*,#225,.F.);
#118=ORIENTED_EDGE('',*,*,#226,.T.);
#119=ORIENTED_EDGE('',*,*,#227,.F.);
#120=ORIENTED_EDGE('',*,*,#228,.T.);
#121=ORIENTED_EDGE('',*,*,#229,.F.);
#122=ORIENTED_EDGE('',*,*,#230,.T.);
#123=ORIENTED_EDGE('',*,*,#175,.F.);
#124=ORIENTED_EDGE('',*,*,#231,.F.);
#125=ORIENTED_EDGE('',*,*,#222,.T.);
#126=ORIENTED_EDGE('',*,*,#232,.T.);
#127=ORIENTED_EDGE('',*,*,#233,.F.);
#128=ORIENTED_EDGE('',*,*,#174,.T.);
#129=ORIENTED_EDGE('',*,*,#178,.T.);
#130=ORIENTED_EDGE('',*,*,#181,.T.);
#131=ORIENTED_EDGE('',*,*,#184,.F.);
#132=ORIENTED_EDGE('',*,*,#187,.T.);
#133=ORIENTED_EDGE('',*,*,#190,.F.);
#134=ORIENTED_EDGE('',*,*,#193,.F.);
#135=ORIENTED_EDGE('',*,*,#196,.T.);
#136=ORIENTED_EDGE('',*,*,#199,.T.);
#137=ORIENTED_EDGE('',*,*,#202,.T.);
#138=ORIENTED_EDGE('',*,*,#205,.F.);
#139=ORIENTED_EDGE('',*,*,#208,.F.);
#140=ORIENTED_EDGE('',*,*,#211,.F.);
#141=ORIENTED_EDGE('',*,*,#214,.T.);
#142=ORIENTED_EDGE('',*,*,#217,.F.);
#143=ORIENTED_EDGE('',*,*,#220,.T.);
#144=ORIENTED_EDGE('',*,*,#223,.T.);
#145=ORIENTED_EDGE('',*,*,#231,.T.);
#146=ORIENTED_EDGE('',*,*,#228,.F.);
#147=ORIENTED_EDGE('',*,*,#226,.F.);
#148=ORIENTED_EDGE('',*,*,#224,.F.);
#149=ORIENTED_EDGE('',*,*,#232,.F.);
#150=ORIENTED_EDGE('',*,*,#172,.F.);
#151=ORIENTED_EDGE('',*,*,#230,.F.);
#152=ORIENTED_EDGE('',*,*,#221,.F.);
#153=ORIENTED_EDGE('',*,*,#218,.F.);
#154=ORIENTED_EDGE('',*,*,#215,.T.);
#155=ORIENTED_EDGE('',*,*,#212,.F.);
#156=ORIENTED_EDGE('',*,*,#209,.T.);
#157=ORIENTED_EDGE('',*,*,#206,.T.);
#158=ORIENTED_EDGE('',*,*,#203,.T.);
#159=ORIENTED_EDGE('',*,*,#200,.F.);
#160=ORIENTED_EDGE('',*,*,#197,.F.);
#161=ORIENTED_EDGE('',*,*,#194,.F.);
#162=ORIENTED_EDGE('',*,*,#191,.T.);
#163=ORIENTED_EDGE('',*,*,#188,.T.);
#164=ORIENTED_EDGE('',*,*,#185,.F.);
#165=ORIENTED_EDGE('',*,*,#182,.T.);
#166=ORIENTED_EDGE('',*,*,#179,.F.);
#167=ORIENTED_EDGE('',*,*,#176,.F.);
#168=ORIENTED_EDGE('',*,*,#229,.T.);
#169=ORIENTED_EDGE('',*,*,#227,.T.);
#170=ORIENTED_EDGE('',*,*,#225,.T.);
#171=ORIENTED_EDGE('',*,*,#233,.T.);
#172=EDGE_CURVE('',#234,#235,#278,.T.);
#173=EDGE_CURVE('',#236,#235,#279,.T.);
#174=EDGE_CURVE('',#237,#236,#280,.T.);
#175=EDGE_CURVE('',#237,#234,#281,.T.);
#176=EDGE_CURVE('',#235,#238,#12,.T.);
#177=EDGE_CURVE('',#239,#238,#282,.T.);
#178=EDGE_CURVE('',#236,#239,#13,.T.);
#179=EDGE_CURVE('',#238,#240,#283,.T.);
#180=EDGE_CURVE('',#241,#240,#284,.T.);
#181=EDGE_CURVE('',#239,#241,#285,.T.);
#182=EDGE_CURVE('',#242,#240,#286,.T.);
#183=EDGE_CURVE('',#243,#242,#287,.T.);
#184=EDGE_CURVE('',#243,#241,#288,.T.);
#185=EDGE_CURVE('',#242,#244,#14,.T.);
#186=EDGE_CURVE('',#245,#244,#289,.T.);
#187=EDGE_CURVE('',#243,#245,#15,.T.);
#188=EDGE_CURVE('',#246,#244,#290,.T.);
#189=EDGE_CURVE('',#247,#246,#291,.T.);
#190=EDGE_CURVE('',#247,#245,#292,.T.);
#191=EDGE_CURVE('',#248,#246,#16,.T.);
#192=EDGE_CURVE('',#249,#248,#293,.T.);
#193=EDGE_CURVE('',#249,#247,#17,.T.);
#194=EDGE_CURVE('',#248,#250,#294,.T.);
#195=EDGE_CURVE('',#251,#250,#295,.T.);
#196=EDGE_CURVE('',#249,#251,#296,.T.);
#197=EDGE_CURVE('',#250,#252,#297,.T.);
#198=EDGE_CURVE('',#253,#252,#298,.T.);
#199=EDGE_CURVE('',#251,#253,#299,.T.);
#200=EDGE_CURVE('',#252,#254,#18,.T.);
#201=EDGE_CURVE('',#255,#254,#300,.T.);
#202=EDGE_CURVE('',#253,#255,#19,.T.);
#203=EDGE_CURVE('',#256,#254,#301,.T.);
#204=EDGE_CURVE('',#257,#256,#302,.T.);
#205=EDGE_CURVE('',#257,#255,#303,.T.);
#206=EDGE_CURVE('',#258,#256,#20,.T.);
#207=EDGE_CURVE('',#259,#258,#304,.T.);
#208=EDGE_CURVE('',#259,#257,#21,.T.);
#209=EDGE_CURVE('',#260,#258,#305,.T.);
#210=EDGE_CURVE('',#261,#260,#306,.T.);
#211=EDGE_CURVE('',#261,#259,#307,.T.);
#212=EDGE_CURVE('',#260,#262,#22,.T.);
#213=EDGE_CURVE('',#263,#262,#308,.T.);
#214=EDGE_CURVE('',#261,#263,#23,.T.);
#215=EDGE_CURVE('',#264,#262,#309,.T.);
#216=EDGE_CURVE('',#265,#264,#310,.T.);
#217=EDGE_CURVE('',#265,#263,#311,.T.);
#218=EDGE_CURVE('',#264,#266,#24,.T.);
#219=EDGE_CURVE('',#267,#266,#312,.T.);
#220=EDGE_CURVE('',#265,#267,#25,.T.);
#221=EDGE_CURVE('',#266,#268,#313,.T.);
#222=EDGE_CURVE('',#269,#268,#314,.T.);
#223=EDGE_CURVE('',#267,#269,#315,.T.);
#224=EDGE_CURVE('',#270,#270,#26,.T.);
#225=EDGE_CURVE('',#271,#271,#27,.T.);
#226=EDGE_CURVE('',#272,#272,#28,.T.);
#227=EDGE_CURVE('',#273,#273,#29,.T.);
#228=EDGE_CURVE('',#274,#274,#30,.T.);
#229=EDGE_CURVE('',#275,#275,#31,.T.);
#230=EDGE_CURVE('',#268,#234,#32,.T.);
#231=EDGE_CURVE('',#269,#237,#33,.T.);
#232=EDGE_CURVE('',#276,#276,#34,.T.);
#233=EDGE_CURVE('',#277,#277,#35,.T.);
#234=VERTEX_POINT('',#662);
#235=VERTEX_POINT('',#663);
#236=VERTEX_POINT('',#665);
#237=VERTEX_POINT('',#667);
#238=VERTEX_POINT('',#671);
#239=VERTEX_POINT('',#673);
#240=VERTEX_POINT('',#677);
#241=VERTEX_POINT('',#679);
#242=VERTEX_POINT('',#683);
#243=VERTEX_POINT('',#685);
#244=VERTEX_POINT('',#689);
#245=VERTEX_POINT('',#691);
#246=VERTEX_POINT('',#695);
#247=VERTEX_POINT('',#697);
#248=VERTEX_POINT('',#701);
#249=VERTEX_POINT('',#703);
#250=VERTEX_POINT('',#707);
#251=VERTEX_POINT('',#709);
#252=VERTEX_POINT('',#713);
#253=VERTEX_POINT('',#715);
#254=VERTEX_POINT('',#719);
#255=VERTEX_POINT('',#721);
#256=VERTEX_POINT('',#725);
#257=VERTEX_POINT('',#727);
#258=VERTEX_POINT('',#731);
#259=VERTEX_POINT('',#733);
#260=VERTEX_POINT('',#737);
#261=VERTEX_POINT('',#739);
#262=VERTEX_POINT('',#743);
#263=VERTEX_POINT('',#745);
#264=VERTEX_POINT('',#749);
#265=VERTEX_POINT('',#751);
#266=VERTEX_POINT('',#755);
#267=VERTEX_POINT('',#757);
#268=VERTEX_POINT('',#761);
#269=VERTEX_POINT('',#763);
#270=VERTEX_POINT('',#767);
#271=VERTEX_POINT('',#769);
#272=VERTEX_POINT('',#772);
#273=VERTEX_POINT('',#774);
#274=VERTEX_POINT('',#777);
#275=VERTEX_POINT('',#779);
#276=VERTEX_POINT('',#785);
#277=VERTEX_POINT('',#787);
#278=LINE('',#661,#316);
#279=LINE('',#664,#317);
#280=LINE('',#666,#318);
#281=LINE('',#668,#319);
#282=LINE('',#672,#320);
#283=LINE('',#676,#321);
#284=LINE('',#678,#322);
#285=LINE('',#680,#323);
#286=LINE('',#682,#324);
#287=LINE('',#684,#325);
#288=LINE('',#686,#326);
#289=LINE('',#690,#327);
#290=LINE('',#694,#328);
#291=LINE('',#696,#329);
#292=LINE('',#698,#330);
#293=LINE('',#702,#331);
#294=LINE('',#706,#332);
#295=LINE('',#708,#333);
#296=LINE('',#710,#334);
#297=LINE('',#712,#335);
#298=LINE('',#714,#336);
#299=LINE('',#716,#337);
#300=LINE('',#720,#338);
#301=LINE('',#724,#339);
#302=LINE('',#726,#340);
#303=LINE('',#728,#341);
#304=LINE('',#732,#342);
#305=LINE('',#736,#343);
#306=LINE('',#738,#344);
#307=LINE('',#740,#345);
#308=LINE('',#744,#346);
#309=LINE('',#748,#347);
#310=LINE('',#750,#348);
#311=LINE('',#752,#349);
#312=LINE('',#756,#350);
#313=LINE('',#760,#351);
#314=LINE('',#762,#352);
#315=LINE('',#764,#353);
#316=VECTOR('',#527,1.);
#317=VECTOR('',#528,1.);
#318=VECTOR('',#529,1.);
#319=VECTOR('',#530,1.);
#320=VECTOR('',#535,1.);
#321=VECTOR('',#540,1.);
#322=VECTOR('',#541,1.);
#323=VECTOR('',#542,1.);
#324=VECTOR('',#545,1.);
#325=VECTOR('',#546,1.);
#326=VECTOR('',#547,1.);
#327=VECTOR('',#552,1.);
#328=VECTOR('',#557,1.);
#329=VECTOR('',#558,1.);
#330=VECTOR('',#559,1.);
#331=VECTOR('',#564,1.);
#332=VECTOR('',#569,1.);
#333=VECTOR('',#570,1.);
#334=VECTOR('',#571,1.);
#335=VECTOR('',#574,1.);
#336=VECTOR('',#575,1.);
#337=VECTOR('',#576,1.);
#338=VECTOR('',#581,1.);
#339=VECTOR('',#586,1.);
#340=VECTOR('',#587,1.);
#341=VECTOR('',#588,1.);
#342=VECTOR('',#593,1.);
#343=VECTOR('',#598,1.);
#344=VECTOR('',#599,1.);
#345=VECTOR('',#600,1.);
#346=VECTOR('',#605,1.);
#347=VECTOR('',#610,1.);
#348=VECTOR('',#611,1.);
#349=VECTOR('',#612,1.);
#350=EDGE_LOOP('',(#48,#49,#50,#51));
#351=EDGE_LOOP('',(#52,#53,#54,#55));
#352=EDGE_LOOP('',(#56,#57,#58,#59));
#353=EDGE_LOOP('',(#60,#61,#62,#63));
#354=EDGE_LOOP('',(#64,#65,#66,#67));
#355=EDGE_LOOP('',(#68,#69,#70,#71));
#356=EDGE_LOOP('',(#72,#73,#74,#75));
#357=EDGE_LOOP('',(#76,#77,#78,#79));
#358=EDGE_LOOP('',(#80,#81,#82,#83));
#359=EDGE_LOOP('',(#84,#85,#86,#87));
#360=EDGE_LOOP('',(#88,#89,#90,#91));
#361=EDGE_LOOP('',(#92,#93,#94,#95));
#362=EDGE_LOOP('',(#96,#97,#98,#99));
#363=EDGE_LOOP('',(#100,#101,#102,#103));
#364=EDGE_LOOP('',(#104,#105,#106,#107));
#365=EDGE_LOOP('',(#108,#109,#110,#111));
#366=EDGE_LOOP('',(#112,#113,#114,#115));
#367=EDGE_LOOP('',(#116));
#368=EDGE_LOOP('',(#117));
#369=EDGE_LOOP('',(#118));
#370=EDGE_LOOP('',(#119));
#371=EDGE_LOOP('',(#120));
#372=EDGE_LOOP('',(#121));
#373=EDGE_LOOP('',(#122,#123,#124,#125));
#374=EDGE_LOOP('',(#126));
#375=EDGE_LOOP('',(#127));
#376=EDGE_LOOP('',(#128,#129,#130,#131,#132,#133,#134,#135,#136,#137,#138,#139,#140,#141,#142,#143,#144,#145));
#377=EDGE_LOOP('',(#146));
#378=EDGE_LOOP('',(#147));
#379=EDGE_LOOP('',(#148));
#380=EDGE_LOOP('',(#149));
#381=EDGE_LOOP('',(#150,#151,#152,#153,#154,#155,#156,#157,#158,#159,#160,#161,#162,#163,#164,#165,#166,#167));
#382=EDGE_LOOP('',(#168));
#383=EDGE_LOOP('',(#169));
#384=EDGE_LOOP('',(#170));
#385=EDGE_LOOP('',(#171));
#386=FACE_BOUND('',#350,.T.);
#387=FACE_BOUND('',#351,.T.);
#388=FACE_BOUND('',#352,.T.);
#389=FACE_BOUND('',#353,.T.);
#390=FACE_BOUND('',#354,.T.);
#391=FACE_BOUND('',#355,.T.);
#392=FACE_BOUND('',#356,.T.);
#393=FACE_BOUND('',#357,.T.);
#394=FACE_BOUND('',#358,.T.);
#395=FACE_BOUND('',#359,.T.);
#396=FACE_BOUND('',#360,.T.);
#397=FACE_BOUND('',#361,.T.);
#398=FACE_BOUND('',#362,.T.);
#399=FACE_BOUND('',#363,.T.);
#400=FACE_BOUND('',#364,.T.);
#401=FACE_BOUND('',#365,.T.);
#402=FACE_BOUND('',#366,.T.);
#403=FACE_BOUND('',#367,.T.);
#404=FACE_BOUND('',#368,.T.);
#405=FACE_BOUND('',#369,.T.);
#406=FACE_BOUND('',#370,.T.);
#407=FACE_BOUND('',#371,.T.);
#408=FACE_BOUND('',#372,.T.);
#409=FACE_BOUND('',#373,.T.);
#410=FACE_BOUND('',#374,.T.);
#411=FACE_BOUND('',#375,.T.);
#412=FACE_BOUND('',#376,.T.);
#413=FACE_BOUND('',#377,.T.);
#414=FACE_BOUND('',#378,.T.);
#415=FACE_BOUND('',#379,.T.);
#416=FACE_BOUND('',#380,.T.);
#417=FACE_BOUND('',#381,.T.);
#418=FACE_BOUND('',#382,.T.);
#419=FACE_BOUND('',#383,.T.);
#420=FACE_BOUND('',#384,.T.);
#421=FACE_BOUND('',#385,.T.);
#422=PLANE('',#475);
#423=PLANE('',#479);
#424=PLANE('',#480);
#425=PLANE('',#484);
#426=PLANE('',#488);
#427=PLANE('',#489);
#428=PLANE('',#493);
#429=PLANE('',#497);
#430=PLANE('',#501);
#431=PLANE('',#505);
#432=PLANE('',#521);
#433=PLANE('',#522);
#434=ADVANCED_FACE('',(#386),#422,.F.);
#435=ADVANCED_FACE('',(#387),#36,.T.);
#436=ADVANCED_FACE('',(#388),#423,.F.);
#437=ADVANCED_FACE('',(#389),#424,.T.);
#438=ADVANCED_FACE('',(#390),#37,.F.);
#439=ADVANCED_FACE('',(#391),#425,.T.);
#440=ADVANCED_FACE('',(#392),#38,.F.);
#441=ADVANCED_FACE('',(#393),#426,.F.);
#442=ADVANCED_FACE('',(#394),#39,.T.);
#443=ADVANCED_FACE('',(#395),#427,.T.);
#444=ADVANCED_FACE('',(#396),#40,.F.);
#445=ADVANCED_FACE('',(#397),#428,.T.);
#446=ADVANCED_FACE('',(#398),#41,.T.);
#447=ADVANCED_FACE('',(#399),#429,.T.);
#448=ADVANCED_FACE('',(#400),#42,.T.);
#449=ADVANCED_FACE('',(#401),#430,.F.);
#450=ADVANCED_FACE('',(#402,#403),#43,.F.);
#451=ADVANCED_FACE('',(#404,#405),#44,.F.);
#452=ADVANCED_FACE('',(#406,#407),#45,.F.);
#453=ADVANCED_FACE('',(#408),#46,.F.);
#454=ADVANCED_FACE('',(#409,#410),#47,.F.);
#455=ADVANCED_FACE('',(#411,#412,#413,#414,#415),#431,.T.);
#456=ADVANCED_FACE('',(#416,#417,#418,#419,#420,#421),#432,.F.);
#457=CLOSED_SHELL('',(#434,#435,#436,#437,#438,#439,#440,#441,#442,#443,#444,#445,#446,#447,#448,#449,#450,#451,#452,#453,#454,#455,#456));
#458=STYLED_ITEM('',(#459),#471);
#459=PRESENTATION_STYLE_ASSIGNMENT((#460));
#460=SURFACE_STYLE_USAGE(.BOTH.,#461);
#461=SURFACE_SIDE_STYLE('',(#462));
#462=SURFACE_STYLE_FILL_AREA(#463);
#463=FILL_AREA_STYLE('',(#464));
#464=FILL_AREA_STYLE_COLOUR('',#465);
#465=COLOUR_RGB('',0.615686274509804,0.811764705882353,0.929411764705882);
#466=MANIFOLD_SOLID_BREP('Part 1',#457);
#467=SHAPE_DEFINITION_REPRESENTATION(#796,#468);
#468=SHAPE_REPRESENTATION('Part 1',(#469),#791);
#469=AXIS2_PLACEMENT_3D('',#659,#523,#524);
#470=AXIS2_PLACEMENT_3D('',#660,#525,#526);
#471=AXIS2_PLACEMENT_3D('',#669,#531,#532);
#472=AXIS2_PLACEMENT_3D('',#670,#533,#534);
#473=AXIS2_PLACEMENT_3D('',#674,#536,#537);
#474=AXIS2_PLACEMENT_3D('',#675,#538,#539);
#475=AXIS2_PLACEMENT_3D('',#681,#543,#544);
#476=AXIS2_PLACEMENT_3D('',#687,#548,#549);
#477=AXIS2_PLACEMENT_3D('',#688,#550,#551);
#478=AXIS2_PLACEMENT_3D('',#692,#553,#554);
#479=AXIS2_PLACEMENT_3D('',#693,#555,#556);
#480=AXIS2_PLACEMENT_3D('',#699,#560,#561);
#481=AXIS2_PLACEMENT_3D('',#700,#562,#563);
#482=AXIS2_PLACEMENT_3D('',#704,#565,#566);
#483=AXIS2_PLACEMENT_3D('',#705,#567,#568);
#484=AXIS2_PLACEMENT_3D('',#711,#572,#573);
#485=AXIS2_PLACEMENT_3D('',#717,#577,#578);
#486=AXIS2_PLACEMENT_3D('',#718,#579,#580);
#487=AXIS2_PLACEMENT_3D('',#722,#582,#583);
#488=AXIS2_PLACEMENT_3D('',#723,#584,#585);
#489=AXIS2_PLACEMENT_3D('',#729,#589,#590);
#490=AXIS2_PLACEMENT_3D('',#730,#591,#592);
#491=AXIS2_PLACEMENT_3D('',#734,#594,#595);
#492=AXIS2_PLACEMENT_3D('',#735,#596,#597);
#493=AXIS2_PLACEMENT_3D('',#741,#601,#602);
#494=AXIS2_PLACEMENT_3D('',#742,#603,#604);
#495=AXIS2_PLACEMENT_3D('',#746,#606,#607);
#496=AXIS2_PLACEMENT_3D('',#747,#608,#609);
#497=AXIS2_PLACEMENT_3D('',#753,#613,#614);
#498=AXIS2_PLACEMENT_3D('',#754,#615,#616);
#499=AXIS2_PLACEMENT_3D('',#758,#618,#619);
#500=AXIS2_PLACEMENT_3D('',#759,#620,#621);
#501=AXIS2_PLACEMENT_3D('',#765,#625,#626);
#502=AXIS2_PLACEMENT_3D('',#766,#627,#628);
#503=AXIS2_PLACEMENT_3D('',#768,#629,#630);
#504=AXIS2_PLACEMENT_3D('',#770,#631,#632);
#505=AXIS2_PLACEMENT_3D('',#771,#633,#634);
#506=AXIS2_PLACEMENT_3D('',#773,#635,#636);
#507=AXIS2_PLACEMENT_3D('',#775,#637,#638);
#508=AXIS2_PLACEMENT_3D('',#776,#639,#640);
#509=AXIS2_PLACEMENT_3D('',#778,#641,#642);
#510=AXIS2_PLACEMENT_3D('',#780,#643,#644);
#511=AXIS2_PLACEMENT_3D('',#781,#645,#646);
#512=AXIS2_PLACEMENT_3D('',#782,#647,#648);
#513=AXIS2_PLACEMENT_3D('',#783,#649,#650);
#514=AXIS2_PLACEMENT_3D('',#784,#651,#652);
#515=AXIS2_PLACEMENT_3D('',#786,#653,#654);
#516=AXIS2_PLACEMENT_3D('',#787,#655,#656);
#517=AXIS2_PLACEMENT_3D('',#788,#657,#658);
#518=AXIS2_PLACEMENT_3D('',#789,#659,#660);
#519=AXIS2_PLACEMENT_3D('',#790,#661,#662);
#520=AXIS2_PLACEMENT_3D('',#792,#663,#664);
#521=AXIS2_PLACEMENT_3D('',#793,#665,#666);
#522=AXIS2_PLACEMENT_3D('',#794,#667,#668);
#523=DIRECTION('',(0.,0.,1.));
#524=DIRECTION('',(1.,0.,0.));
#525=DIRECTION('',(-1.,0.,0.));
#526=DIRECTION('',(0.,0.,1.));
#527=DIRECTION('',(0.,1.,0.));
#528=DIRECTION('',(0.,0.,-1.));
#529=DIRECTION('',(0.,1.,0.));
#530=DIRECTION('',(0.,0.,-1.));
#531=DIRECTION('',(0.,0.,-1.));
#532=DIRECTION('',(-1.,0.,0.));
#533=DIRECTION('',(0.,0.,1.));
#534=DIRECTION('',(1.,0.,0.));
#535=DIRECTION('',(0.,0.,-1.));
#536=DIRECTION('',(0.,0.,1.));
#537=DIRECTION('',(1.,0.,0.));
#538=DIRECTION('',(0.,-1.,0.));
#539=DIRECTION('',(0.,0.,-1.));
#540=DIRECTION('',(-1.,0.,0.));
#541=DIRECTION('',(0.,0.,-1.));
#542=DIRECTION('',(-1.,0.,0.));
#543=DIRECTION('',(-1.,0.,0.));
#544=DIRECTION('',(0.,0.,1.));
#545=DIRECTION('',(0.,1.,0.));
#546=DIRECTION('',(0.,0.,-1.));
#547=DIRECTION('',(0.,1.,0.));
#548=DIRECTION('',(0.,0.,-1.));
#549=DIRECTION('',(-1.,0.,0.));
#550=DIRECTION('',(0.,0.,-1.));
#551=DIRECTION('',(1.,0.,0.));
#552=DIRECTION('',(0.,0.,-1.));
#553=DIRECTION('',(0.,0.,-1.));
#554=DIRECTION('',(1.,0.,0.));
#555=DIRECTION('',(0.,1.,0.));
#556=DIRECTION('',(0.,0.,1.));
#557=DIRECTION('',(1.,0.,0.));
#558=DIRECTION('',(0.,0.,-1.));
#559=DIRECTION('',(1.,0.,0.));
#560=DIRECTION('',(0.,0.,-1.));
#561=DIRECTION('',(-1.,0.,0.));
#562=DIRECTION('',(0.,0.,1.));
#563=DIRECTION('',(-1.,0.,0.));
#564=DIRECTION('',(0.,0.,-1.));
#565=DIRECTION('',(0.,0.,1.));
#566=DIRECTION('',(-1.,0.,0.));
#567=DIRECTION('',(-1.,0.,0.));
#568=DIRECTION('',(0.,0.,1.));
#569=DIRECTION('',(0.,1.,0.));
#570=DIRECTION('',(0.,0.,-1.));
#571=DIRECTION('',(0.,1.,0.));
#572=DIRECTION('',(0.,-1.,0.));
#573=DIRECTION('',(0.,0.,-1.));
#574=DIRECTION('',(-1.,0.,0.));
#575=DIRECTION('',(0.,0.,-1.));
#576=DIRECTION('',(-1.,0.,0.));
#577=DIRECTION('',(0.,0.,-1.));
#578=DIRECTION('',(-1.,0.,0.));
#579=DIRECTION('',(0.,0.,1.));
#580=DIRECTION('',(1.14897288864899E-15,1.,0.));
#581=DIRECTION('',(0.,0.,-1.));
#582=DIRECTION('',(0.,0.,1.));
#583=DIRECTION('',(1.14897288864899E-15,1.,0.));
#584=DIRECTION('',(-1.,0.,0.));
#585=DIRECTION('',(0.,0.,1.));
#586=DIRECTION('',(0.,1.,0.));
#587=DIRECTION('',(0.,0.,-1.));
#588=DIRECTION('',(0.,1.,0.));
#589=DIRECTION('',(0.,0.,-1.));
#590=DIRECTION('',(-1.,0.,0.));
#591=DIRECTION('',(0.,0.,1.));
#592=DIRECTION('',(0.,-1.,0.));
#593=DIRECTION('',(0.,0.,-1.));
#594=DIRECTION('',(0.,0.,1.));
#595=DIRECTION('',(0.,-1.,0.));
#596=DIRECTION('',(-1.,0.,0.));
#597=DIRECTION('',(0.,0.,1.));
#598=DIRECTION('',(0.,1.,0.));
#599=DIRECTION('',(0.,0.,-1.));
#600=DIRECTION('',(0.,1.,0.));
#601=DIRECTION('',(0.,0.,-1.));
#602=DIRECTION('',(-1.,0.,0.));
#603=DIRECTION('',(0.,0.,1.));
#604=DIRECTION('',(-1.,0.,0.));
#605=DIRECTION('',(0.,0.,-1.));
#606=DIRECTION('',(0.,0.,1.));
#607=DIRECTION('',(-1.,0.,0.));
#608=DIRECTION('',(7.44284688358404E-17,-1.,0.));
#609=DIRECTION('',(1.,7.44284688358404E-17,0.));
#610=DIRECTION('',(-1.,-7.44284688358404E-17,0.));
#611=DIRECTION('',(0.,0.,-1.));
#612=DIRECTION('',(-1.,-7.44284688358404E-17,0.));
#613=DIRECTION('',(0.,0.,-1.));
#614=DIRECTION('',(-1.,0.,0.));
#615=DIRECTION('',(0.,0.,1.));
#616=DIRECTION('',(-1.14897288864899E-15,-1.,0.));
#617=DIRECTION('',(0.,0.,-1.));
#618=DIRECTION('',(0.,0.,1.));
#619=DIRECTION('',(-1.14897288864899E-15,-1.,0.));
#620=DIRECTION('',(-1.,0.,0.));
#621=DIRECTION('',(0.,0.,1.));
#622=DIRECTION('',(0.,1.,0.));
#623=DIRECTION('',(0.,0.,-1.));
#624=DIRECTION('',(0.,1.,0.));
#625=DIRECTION('',(0.,0.,-1.));
#626=DIRECTION('',(-1.,0.,0.));
#627=DIRECTION('',(0.,0.,1.));
#628=DIRECTION('',(1.,0.,0.));
#629=DIRECTION('',(0.,0.,1.));
#630=DIRECTION('',(1.,0.,0.));
#631=DIRECTION('',(0.,0.,-1.));
#632=DIRECTION('',(-1.,0.,0.));
#633=DIRECTION('',(0.,0.,1.));
#634=DIRECTION('',(1.,0.,0.));
#635=DIRECTION('',(0.,0.,1.));
#636=DIRECTION('',(1.,0.,0.));
#637=DIRECTION('',(0.,0.,-1.));
#638=DIRECTION('',(-1.,0.,0.));
#639=DIRECTION('',(0.,0.,1.));
#640=DIRECTION('',(-1.,0.,0.));
#641=DIRECTION('',(0.,0.,1.));
#642=DIRECTION('',(-1.,0.,0.));
#643=DIRECTION('',(0.,0.,-1.));
#644=DIRECTION('',(-1.,0.,0.));
#645=DIRECTION('',(0.,0.,-1.));
#646=DIRECTION('',(0.,-1.,0.));
#647=DIRECTION('',(0.,0.,-1.));
#648=DIRECTION('',(0.,-1.,0.));
#649=DIRECTION('',(0.,0.,-1.));
#650=DIRECTION('',(-1.,0.,0.));
#651=DIRECTION('',(0.,0.,1.));
#652=DIRECTION('',(-1.,0.,0.));
#653=DIRECTION('',(0.,0.,1.));
#654=DIRECTION('',(-1.,0.,0.));
#655=DIRECTION('',(0.,0.,1.));
#656=DIRECTION('',(1.,0.,0.));
#657=DIRECTION('',(0.,0.,1.));
#658=DIRECTION('',(1.,0.,0.));
#659=CARTESIAN_POINT('',(0.,0.,0.));
#660=CARTESIAN_POINT('',(0.138,0.,0.003));
#661=CARTESIAN_POINT('',(0.138,0.,0.));
#662=CARTESIAN_POINT('',(0.138,0.01,0.));
#663=CARTESIAN_POINT('',(0.138,0.0658431413919043,0.));
#664=CARTESIAN_POINT('',(0.138,0.0658431413919043,0.003));
#665=CARTESIAN_POINT('',(0.138,0.0658431413919043,0.003));
#666=CARTESIAN_POINT('',(0.138,0.,0.003));
#667=CARTESIAN_POINT('',(0.138,0.01,0.003));
#668=CARTESIAN_POINT('',(0.138,0.01,0.003));
#669=CARTESIAN_POINT('',(0.113843141391904,0.0658431413919043,0.003));
#670=CARTESIAN_POINT('',(0.113843141391904,0.0658431413919043,0.));
#671=CARTESIAN_POINT('',(0.113843141391904,0.09,0.));
#672=CARTESIAN_POINT('',(0.113843141391904,0.09,0.003));
#673=CARTESIAN_POINT('',(0.113843141391904,0.09,0.003));
#674=CARTESIAN_POINT('',(0.113843141391904,0.0658431413919043,0.003));
#675=CARTESIAN_POINT('',(0.102531266964987,0.09,0.003));
#676=CARTESIAN_POINT('',(0.102531266964987,0.09,0.));
#677=CARTESIAN_POINT('',(0.0912193925380707,0.09,0.));
#678=CARTESIAN_POINT('',(0.0912193925380707,0.09,0.003));
#679=CARTESIAN_POINT('',(0.0912193925380707,0.09,0.003));
#680=CARTESIAN_POINT('',(0.102531266964987,0.09,0.003));
#681=CARTESIAN_POINT('',(0.0912193925380707,0.087,0.003));
#682=CARTESIAN_POINT('',(0.0912193925380707,0.087,0.));
#683=CARTESIAN_POINT('',(0.0912193925380707,0.084,0.));
#684=CARTESIAN_POINT('',(0.0912193925380707,0.084,0.003));
#685=CARTESIAN_POINT('',(0.0912193925380707,0.084,0.003));
#686=CARTESIAN_POINT('',(0.0912193925380707,0.087,0.003));
#687=CARTESIAN_POINT('',(0.09,0.084,0.003));
#688=CARTESIAN_POINT('',(0.09,0.084,0.));
#689=CARTESIAN_POINT('',(0.09,0.0827806074619293,0.));
#690=CARTESIAN_POINT('',(0.09,0.0827806074619293,0.003));
#691=CARTESIAN_POINT('',(0.09,0.0827806074619293,0.003));
#692=CARTESIAN_POINT('',(0.09,0.084,0.003));
#693=CARTESIAN_POINT('',(0.,0.0827806074619293,0.003));
#694=CARTESIAN_POINT('',(0.,0.0827806074619293,0.));
#695=CARTESIAN_POINT('',(-0.09,0.0827806074619293,0.));
#696=CARTESIAN_POINT('',(-0.09,0.0827806074619293,0.003));
#697=CARTESIAN_POINT('',(-0.09,0.0827806074619293,0.003));
#698=CARTESIAN_POINT('',(0.,0.0827806074619293,0.003));
#699=CARTESIAN_POINT('',(-0.09,0.084,0.003));
#700=CARTESIAN_POINT('',(-0.09,0.084,0.));
#701=CARTESIAN_POINT('',(-0.0912193925380707,0.084,0.));
#702=CARTESIAN_POINT('',(-0.0912193925380707,0.084,0.003));
#703=CARTESIAN_POINT('',(-0.0912193925380707,0.084,0.003));
#704=CARTESIAN_POINT('',(-0.09,0.084,0.003));
#705=CARTESIAN_POINT('',(-0.0912193925380707,0.087,0.003));
#706=CARTESIAN_POINT('',(-0.0912193925380707,0.087,0.));
#707=CARTESIAN_POINT('',(-0.0912193925380707,0.09,0.));
#708=CARTESIAN_POINT('',(-0.0912193925380707,0.09,0.003));
#709=CARTESIAN_POINT('',(-0.0912193925380707,0.09,0.003));
#710=CARTESIAN_POINT('',(-0.0912193925380707,0.087,0.003));
#711=CARTESIAN_POINT('',(-0.102531266964987,0.09,0.003));
#712=CARTESIAN_POINT('',(-0.102531266964987,0.09,0.));
#713=CARTESIAN_POINT('',(-0.113843141391904,0.09,0.));
#714=CARTESIAN_POINT('',(-0.113843141391904,0.09,0.003));
#715=CARTESIAN_POINT('',(-0.113843141391904,0.09,0.003));
#716=CARTESIAN_POINT('',(-0.102531266964987,0.09,0.003));
#717=CARTESIAN_POINT('',(-0.113843141391904,0.0658431413919043,0.003));
#718=CARTESIAN_POINT('',(-0.113843141391904,0.0658431413919043,0.));
#719=CARTESIAN_POINT('',(-0.138,0.0658431413919043,0.));
#720=CARTESIAN_POINT('',(-0.138,0.0658431413919043,0.003));
#721=CARTESIAN_POINT('',(-0.138,0.0658431413919043,0.003));
#722=CARTESIAN_POINT('',(-0.113843141391904,0.0658431413919043,0.003));
#723=CARTESIAN_POINT('',(-0.138,0.0379215706959521,0.003));
#724=CARTESIAN_POINT('',(-0.138,0.0379215706959521,0.));
#725=CARTESIAN_POINT('',(-0.138,0.01,0.));
#726=CARTESIAN_POINT('',(-0.138,0.01,0.003));
#727=CARTESIAN_POINT('',(-0.138,0.01,0.003));
#728=CARTESIAN_POINT('',(-0.138,0.0379215706959521,0.003));
#729=CARTESIAN_POINT('',(-0.138,-1.7347234759768E-17,0.003));
#730=CARTESIAN_POINT('',(-0.138,-1.7347234759768E-17,0.));
#731=CARTESIAN_POINT('',(-0.138,-0.01,0.));
#732=CARTESIAN_POINT('',(-0.138,-0.01,0.003));
#733=CARTESIAN_POINT('',(-0.138,-0.01,0.003));
#734=CARTESIAN_POINT('',(-0.138,-1.7347234759768E-17,0.003));
#735=CARTESIAN_POINT('',(-0.138,-0.0379215706959522,0.003));
#736=CARTESIAN_POINT('',(-0.138,-0.0379215706959522,0.));
#737=CARTESIAN_POINT('',(-0.138,-0.0658431413919043,0.));
#738=CARTESIAN_POINT('',(-0.138,-0.0658431413919043,0.003));
#739=CARTESIAN_POINT('',(-0.138,-0.0658431413919043,0.003));
#740=CARTESIAN_POINT('',(-0.138,-0.0379215706959522,0.003));
#741=CARTESIAN_POINT('',(-0.113843141391904,-0.0658431413919043,0.003));
#742=CARTESIAN_POINT('',(-0.113843141391904,-0.0658431413919043,0.));
#743=CARTESIAN_POINT('',(-0.113843141391904,-0.09,0.));
#744=CARTESIAN_POINT('',(-0.113843141391904,-0.09,0.003));
#745=CARTESIAN_POINT('',(-0.113843141391904,-0.09,0.003));
#746=CARTESIAN_POINT('',(-0.113843141391904,-0.0658431413919043,0.003));
#747=CARTESIAN_POINT('',(0.,-0.09,0.003));
#748=CARTESIAN_POINT('',(0.,-0.09,0.));
#749=CARTESIAN_POINT('',(0.113843141391904,-0.09,0.));
#750=CARTESIAN_POINT('',(0.113843141391904,-0.09,0.003));
#751=CARTESIAN_POINT('',(0.113843141391904,-0.09,0.003));
#752=CARTESIAN_POINT('',(0.,-0.09,0.003));
#753=CARTESIAN_POINT('',(0.113843141391904,-0.0658431413919043,0.003));
#754=CARTESIAN_POINT('',(0.113843141391904,-0.0658431413919043,0.));
#755=CARTESIAN_POINT('',(0.138,-0.0658431413919043,0.));
#756=CARTESIAN_POINT('',(0.138,-0.0658431413919043,0.003));
#757=CARTESIAN_POINT('',(0.138,-0.0658431413919043,0.003));
#758=CARTESIAN_POINT('',(0.113843141391904,-0.0658431413919043,0.003));
#759=CARTESIAN_POINT('',(0.138,0.,0.003));
#760=CARTESIAN_POINT('',(0.138,0.,0.));
#761=CARTESIAN_POINT('',(0.138,-0.01,0.));
#762=CARTESIAN_POINT('',(0.138,-0.01,0.003));
#763=CARTESIAN_POINT('',(0.138,-0.01,0.003));
#764=CARTESIAN_POINT('',(0.138,0.,0.003));
#765=CARTESIAN_POINT('',(-0.125,0.0776306763291359,0.003));
#766=CARTESIAN_POINT('',(-0.125,0.0776306763291359,0.003));
#767=CARTESIAN_POINT('',(-0.123,0.0776306763291359,0.003));
#768=CARTESIAN_POINT('',(-0.125,0.0776306763291359,0.));
#769=CARTESIAN_POINT('',(-0.123,0.0776306763291359,0.));
#770=CARTESIAN_POINT('',(-0.125,-0.0776306763291359,0.003));
#771=CARTESIAN_POINT('',(-0.125,-0.0776306763291359,0.003));
#772=CARTESIAN_POINT('',(-0.123,-0.0776306763291359,0.003));
#773=CARTESIAN_POINT('',(-0.125,-0.0776306763291359,0.));
#774=CARTESIAN_POINT('',(-0.123,-0.0776306763291359,0.));
#775=CARTESIAN_POINT('',(0.125,-0.0776306763291359,0.003));
#776=CARTESIAN_POINT('',(0.125,-0.0776306763291359,0.003));
#777=CARTESIAN_POINT('',(0.123,-0.0776306763291359,0.003));
#778=CARTESIAN_POINT('',(0.125,-0.0776306763291359,0.));
#779=CARTESIAN_POINT('',(0.123,-0.0776306763291359,0.));
#780=CARTESIAN_POINT('',(0.138,-1.7347234759768E-17,0.003));
#781=CARTESIAN_POINT('',(0.138,-1.7347234759768E-17,0.));
#782=CARTESIAN_POINT('',(0.138,-1.7347234759768E-17,0.003));
#783=CARTESIAN_POINT('',(0.125,0.0776306763291359,0.003));
#784=CARTESIAN_POINT('',(0.125,0.0776306763291359,0.003));
#785=CARTESIAN_POINT('',(0.123,0.0776306763291359,0.003));
#786=CARTESIAN_POINT('',(0.125,0.0776306763291359,0.));
#787=CARTESIAN_POINT('',(0.123,0.0776306763291359,0.));
#788=CARTESIAN_POINT('',(0.,0.,0.003));
#789=CARTESIAN_POINT('',(0.,0.,0.));
#790=MECHANICAL_DESIGN_GEOMETRIC_PRESENTATION_REPRESENTATION('',(#463),#791);
#791=(
GEOMETRIC_REPRESENTATION_CONTEXT(3)
GLOBAL_UNCERTAINTY_ASSIGNED_CONTEXT((#792))
GLOBAL_UNIT_ASSIGNED_CONTEXT((#795,#794,#793))
REPRESENTATION_CONTEXT('Part 1','TOP_LEVEL_ASSEMBLY_PART')
);
#792=UNCERTAINTY_MEASURE_WITH_UNIT(LENGTH_MEASURE(1.E-8),#795,
'DISTANCE_ACCURACY_VALUE','Maximum Tolerance applied to model');
#793=(
NAMED_UNIT(*)
SI_UNIT($,.STERADIAN.)
SOLID_ANGLE_UNIT()
);
#794=(
NAMED_UNIT(*)
PLANE_ANGLE_UNIT()
SI_UNIT($,.RADIAN.)
);
#795=(
LENGTH_UNIT()
NAMED_UNIT(*)
SI_UNIT($,.METRE.)
);
#796=PRODUCT_DEFINITION_SHAPE('','',#797);
#797=PRODUCT_DEFINITION('','',#799,#798);
#798=PRODUCT_DEFINITION_CONTEXT('',#805,'design');
#799=PRODUCT_DEFINITION_FORMATION_WITH_SPECIFIED_SOURCE('','',#801,
 .NOT_KNOWN.);
#800=PRODUCT_RELATED_PRODUCT_CATEGORY('','',(#801));
#801=PRODUCT('Part 1','Part 1','Part 1',(#803));
#802=PRODUCT_CATEGORY('','');
#803=PRODUCT_CONTEXT('',#805,'mechanical');
#804=APPLICATION_PROTOCOL_DEFINITION('international standard',
'ap242_managed_model_based_3d_engineering',2020,#805);
#805=APPLICATION_CONTEXT('managed model based 3d engineering');
ENDSEC;
END-ISO-10303-21;
