ISO-10303-21;
HEADER;
/* Generated by software containing ST-Developer
 * from STEP Tools, Inc. (www.steptools.com) 
 */
/* OPTION: using custom renumber hook */

FILE_DESCRIPTION(
/* description */ ('STEP AP242 Edition 2',
'CAx-IF Rec.Pracs.---Representation and Presentation of Product Manufa
cturing Information (PMI)---4.0---2014-10-13',
'CAx-IF Rec.Pracs.---3D Tessellated Geometry---0.4---2014-09-14','2;1',
'CAx-IF Rec.Pracs.---User Defined Attributes---1.5---2016-08-15'),
/* implementation_level */ '2;1');

FILE_NAME(
/* name */ 'Part Studio 1',
/* time_stamp */ '2026-10-04T20:23:34Z',
/* author */ (''),
/* organization */ (''),
/* preprocessor_version */ 'ST-DEVELOPER v20',
/* originating_system */ 'ONSHAPE BY PTC INC, 1.221',
/* authorisation */ '  ');

FILE_SCHEMA (('AP242_MANAGED_MODEL_BASED_3D_ENGINEERING_MIM_LF { 1 0 10303 442 3 1 4 }'));
ENDSEC;

DATA;
#10=SHAPE_REPRESENTATION_RELATIONSHIP('','',#399,#11);
#11=ADVANCED_BREP_SHAPE_REPRESENTATION('',(#397),#657);
#12=PLANE('',#404);
#13=PLANE('',#408);
#14=PLANE('',#412);
#15=PLANE('',#416);
#16=PLANE('',#417);
#17=PLANE('',#418);
#18=PLANE('',#434);
#19=PLANE('',#435);
#20=PLANE('',#439);
#21=PLANE('',#440);
#22=LINE('',#556,#50);
#23=LINE('',#560,#51);
#24=LINE('',#562,#52);
#25=LINE('',#564,#53);
#26=LINE('',#566,#54);
#27=LINE('',#570,#55);
#28=LINE('',#574,#56);
#29=LINE('',#576,#57);
#30=LINE('',#578,#58);
#31=LINE('',#582,#59);
#32=LINE('',#586,#60);
#33=LINE('',#588,#61);
#34=LINE('',#590,#62);
#35=LINE('',#594,#63);
#36=LINE('',#598,#64);
#37=LINE('',#601,#65);
#38=LINE('',#603,#66);
#39=LINE('',#605,#67);
#40=LINE('',#607,#68);
#41=LINE('',#609,#69);
#42=LINE('',#611,#70);
#43=LINE('',#613,#71);
#44=LINE('',#615,#72);
#45=LINE('',#617,#73);
#46=LINE('',#644,#74);
#47=LINE('',#645,#75);
#48=LINE('',#647,#76);
#49=LINE('',#648,#77);
#50=VECTOR('',#447,1.);
#51=VECTOR('',#450,1.);
#52=VECTOR('',#453,1.);
#53=VECTOR('',#454,1.);
#54=VECTOR('',#455,1.);
#55=VECTOR('',#460,1.);
#56=VECTOR('',#465,1.);
#57=VECTOR('',#466,1.);
#58=VECTOR('',#467,1.);
#59=VECTOR('',#472,1.);
#60=VECTOR('',#477,1.);
#61=VECTOR('',#478,1.);
#62=VECTOR('',#479,1.);
#63=VECTOR('',#484,1.);
#64=VECTOR('',#489,1.);
#65=VECTOR('',#490,1.);
#66=VECTOR('',#491,1.);
#67=VECTOR('',#492,1.);
#68=VECTOR('',#495,1.);
#69=VECTOR('',#496,1.);
#70=VECTOR('',#497,1.);
#71=VECTOR('',#500,1.);
#72=VECTOR('',#501,1.);
#73=VECTOR('',#502,1.);
#74=VECTOR('',#535,1.);
#75=VECTOR('',#536,1.);
#76=VECTOR('',#539,1.);
#77=VECTOR('',#540,1.);
#78=ORIENTED_EDGE('',*,*,#174,.F.);
#79=ORIENTED_EDGE('',*,*,#175,.F.);
#80=ORIENTED_EDGE('',*,*,#176,.T.);
#81=ORIENTED_EDGE('',*,*,#177,.T.);
#82=ORIENTED_EDGE('',*,*,#178,.F.);
#83=ORIENTED_EDGE('',*,*,#179,.F.);
#84=ORIENTED_EDGE('',*,*,#180,.T.);
#85=ORIENTED_EDGE('',*,*,#175,.T.);
#86=ORIENTED_EDGE('',*,*,#181,.T.);
#87=ORIENTED_EDGE('',*,*,#182,.F.);
#88=ORIENTED_EDGE('',*,*,#183,.F.);
#89=ORIENTED_EDGE('',*,*,#179,.T.);
#90=ORIENTED_EDGE('',*,*,#184,.T.);
#91=ORIENTED_EDGE('',*,*,#185,.F.);
#92=ORIENTED_EDGE('',*,*,#186,.F.);
#93=ORIENTED_EDGE('',*,*,#182,.T.);
#94=ORIENTED_EDGE('',*,*,#187,.F.);
#95=ORIENTED_EDGE('',*,*,#188,.F.);
#96=ORIENTED_EDGE('',*,*,#189,.T.);
#97=ORIENTED_EDGE('',*,*,#185,.T.);
#98=ORIENTED_EDGE('',*,*,#190,.T.);
#99=ORIENTED_EDGE('',*,*,#191,.F.);
#100=ORIENTED_EDGE('',*,*,#192,.F.);
#101=ORIENTED_EDGE('',*,*,#188,.T.);
#102=ORIENTED_EDGE('',*,*,#193,.T.);
#103=ORIENTED_EDGE('',*,*,#194,.F.);
#104=ORIENTED_EDGE('',*,*,#195,.F.);
#105=ORIENTED_EDGE('',*,*,#191,.T.);
#106=ORIENTED_EDGE('',*,*,#196,.F.);
#107=ORIENTED_EDGE('',*,*,#197,.F.);
#108=ORIENTED_EDGE('',*,*,#198,.T.);
#109=ORIENTED_EDGE('',*,*,#199,.T.);
#110=ORIENTED_EDGE('',*,*,#200,.F.);
#111=ORIENTED_EDGE('',*,*,#201,.F.);
#112=ORIENTED_EDGE('',*,*,#202,.T.);
#113=ORIENTED_EDGE('',*,*,#197,.T.);
#114=ORIENTED_EDGE('',*,*,#203,.F.);
#115=ORIENTED_EDGE('',*,*,#204,.F.);
#116=ORIENTED_EDGE('',*,*,#205,.T.);
#117=ORIENTED_EDGE('',*,*,#201,.T.);
#118=ORIENTED_EDGE('',*,*,#206,.T.);
#119=ORIENTED_EDGE('',*,*,#207,.F.);
#120=ORIENTED_EDGE('',*,*,#208,.T.);
#121=ORIENTED_EDGE('',*,*,#209,.F.);
#122=ORIENTED_EDGE('',*,*,#210,.T.);
#123=ORIENTED_EDGE('',*,*,#211,.F.);
#124=ORIENTED_EDGE('',*,*,#212,.T.);
#125=ORIENTED_EDGE('',*,*,#213,.F.);
#126=ORIENTED_EDGE('',*,*,#214,.T.);
#127=ORIENTED_EDGE('',*,*,#215,.F.);
#128=ORIENTED_EDGE('',*,*,#216,.F.);
#129=ORIENTED_EDGE('',*,*,#177,.F.);
#130=ORIENTED_EDGE('',*,*,#217,.T.);
#131=ORIENTED_EDGE('',*,*,#194,.T.);
#132=ORIENTED_EDGE('',*,*,#218,.F.);
#133=ORIENTED_EDGE('',*,*,#199,.F.);
#134=ORIENTED_EDGE('',*,*,#219,.T.);
#135=ORIENTED_EDGE('',*,*,#204,.T.);
#136=ORIENTED_EDGE('',*,*,#220,.F.);
#137=ORIENTED_EDGE('',*,*,#221,.T.);
#138=ORIENTED_EDGE('',*,*,#198,.F.);
#139=ORIENTED_EDGE('',*,*,#202,.F.);
#140=ORIENTED_EDGE('',*,*,#205,.F.);
#141=ORIENTED_EDGE('',*,*,#219,.F.);
#142=ORIENTED_EDGE('',*,*,#176,.F.);
#143=ORIENTED_EDGE('',*,*,#180,.F.);
#144=ORIENTED_EDGE('',*,*,#183,.T.);
#145=ORIENTED_EDGE('',*,*,#186,.T.);
#146=ORIENTED_EDGE('',*,*,#189,.F.);
#147=ORIENTED_EDGE('',*,*,#192,.T.);
#148=ORIENTED_EDGE('',*,*,#195,.T.);
#149=ORIENTED_EDGE('',*,*,#217,.F.);
#150=ORIENTED_EDGE('',*,*,#214,.F.);
#151=ORIENTED_EDGE('',*,*,#212,.F.);
#152=ORIENTED_EDGE('',*,*,#210,.F.);
#153=ORIENTED_EDGE('',*,*,#208,.F.);
#154=ORIENTED_EDGE('',*,*,#206,.F.);
#155=ORIENTED_EDGE('',*,*,#220,.T.);
#156=ORIENTED_EDGE('',*,*,#196,.T.);
#157=ORIENTED_EDGE('',*,*,#218,.T.);
#158=ORIENTED_EDGE('',*,*,#203,.T.);
#159=ORIENTED_EDGE('',*,*,#200,.T.);
#160=ORIENTED_EDGE('',*,*,#174,.T.);
#161=ORIENTED_EDGE('',*,*,#216,.T.);
#162=ORIENTED_EDGE('',*,*,#193,.F.);
#163=ORIENTED_EDGE('',*,*,#190,.F.);
#164=ORIENTED_EDGE('',*,*,#187,.T.);
#165=ORIENTED_EDGE('',*,*,#184,.F.);
#166=ORIENTED_EDGE('',*,*,#181,.F.);
#167=ORIENTED_EDGE('',*,*,#178,.T.);
#168=ORIENTED_EDGE('',*,*,#215,.T.);
#169=ORIENTED_EDGE('',*,*,#213,.T.);
#170=ORIENTED_EDGE('',*,*,#211,.T.);
#171=ORIENTED_EDGE('',*,*,#209,.T.);
#172=ORIENTED_EDGE('',*,*,#207,.T.);
#173=ORIENTED_EDGE('',*,*,#221,.F.);
#174=EDGE_CURVE('',#222,#223,#258,.T.);
#175=EDGE_CURVE('',#224,#222,#22,.T.);
#176=EDGE_CURVE('',#224,#225,#259,.T.);
#177=EDGE_CURVE('',#225,#223,#23,.T.);
#178=EDGE_CURVE('',#226,#222,#24,.T.);
#179=EDGE_CURVE('',#227,#226,#25,.T.);
#180=EDGE_CURVE('',#227,#224,#26,.T.);
#181=EDGE_CURVE('',#226,#228,#260,.T.);
#182=EDGE_CURVE('',#229,#228,#27,.T.);
#183=EDGE_CURVE('',#227,#229,#261,.T.);
#184=EDGE_CURVE('',#228,#230,#28,.T.);
#185=EDGE_CURVE('',#231,#230,#29,.T.);
#186=EDGE_CURVE('',#229,#231,#30,.T.);
#187=EDGE_CURVE('',#232,#230,#262,.T.);
#188=EDGE_CURVE('',#233,#232,#31,.T.);
#189=EDGE_CURVE('',#233,#231,#263,.T.);
#190=EDGE_CURVE('',#232,#234,#32,.T.);
#191=EDGE_CURVE('',#235,#234,#33,.T.);
#192=EDGE_CURVE('',#233,#235,#34,.T.);
#193=EDGE_CURVE('',#234,#236,#264,.T.);
#194=EDGE_CURVE('',#237,#236,#35,.T.);
#195=EDGE_CURVE('',#235,#237,#265,.T.);
#196=EDGE_CURVE('',#238,#239,#36,.T.);
#197=EDGE_CURVE('',#240,#238,#37,.T.);
#198=EDGE_CURVE('',#240,#241,#38,.T.);
#199=EDGE_CURVE('',#241,#239,#39,.T.);
#200=EDGE_CURVE('',#242,#238,#40,.T.);
#201=EDGE_CURVE('',#243,#242,#41,.T.);
#202=EDGE_CURVE('',#243,#240,#42,.T.);
#203=EDGE_CURVE('',#244,#242,#43,.T.);
#204=EDGE_CURVE('',#245,#244,#44,.T.);
#205=EDGE_CURVE('',#245,#243,#45,.T.);
#206=EDGE_CURVE('',#246,#246,#266,.T.);
#207=EDGE_CURVE('',#247,#247,#267,.T.);
#208=EDGE_CURVE('',#248,#248,#268,.T.);
#209=EDGE_CURVE('',#249,#249,#269,.T.);
#210=EDGE_CURVE('',#250,#250,#270,.T.);
#211=EDGE_CURVE('',#251,#251,#271,.T.);
#212=EDGE_CURVE('',#252,#252,#272,.T.);
#213=EDGE_CURVE('',#253,#253,#273,.T.);
#214=EDGE_CURVE('',#254,#254,#274,.T.);
#215=EDGE_CURVE('',#255,#255,#275,.T.);
#216=EDGE_CURVE('',#223,#236,#46,.T.);
#217=EDGE_CURVE('',#225,#237,#47,.T.);
#218=EDGE_CURVE('',#239,#244,#48,.T.);
#219=EDGE_CURVE('',#241,#245,#49,.T.);
#220=EDGE_CURVE('',#256,#256,#276,.T.);
#221=EDGE_CURVE('',#257,#257,#277,.T.);
#222=VERTEX_POINT('',#554);
#223=VERTEX_POINT('',#555);
#224=VERTEX_POINT('',#557);
#225=VERTEX_POINT('',#559);
#226=VERTEX_POINT('',#563);
#227=VERTEX_POINT('',#565);
#228=VERTEX_POINT('',#569);
#229=VERTEX_POINT('',#571);
#230=VERTEX_POINT('',#575);
#231=VERTEX_POINT('',#577);
#232=VERTEX_POINT('',#581);
#233=VERTEX_POINT('',#583);
#234=VERTEX_POINT('',#587);
#235=VERTEX_POINT('',#589);
#236=VERTEX_POINT('',#593);
#237=VERTEX_POINT('',#595);
#238=VERTEX_POINT('',#599);
#239=VERTEX_POINT('',#600);
#240=VERTEX_POINT('',#602);
#241=VERTEX_POINT('',#604);
#242=VERTEX_POINT('',#608);
#243=VERTEX_POINT('',#610);
#244=VERTEX_POINT('',#614);
#245=VERTEX_POINT('',#616);
#246=VERTEX_POINT('',#620);
#247=VERTEX_POINT('',#622);
#248=VERTEX_POINT('',#625);
#249=VERTEX_POINT('',#627);
#250=VERTEX_POINT('',#630);
#251=VERTEX_POINT('',#632);
#252=VERTEX_POINT('',#635);
#253=VERTEX_POINT('',#637);
#254=VERTEX_POINT('',#640);
#255=VERTEX_POINT('',#642);
#256=VERTEX_POINT('',#651);
#257=VERTEX_POINT('',#653);
#258=CIRCLE('',#402,0.0241568586080958);
#259=CIRCLE('',#403,0.0241568586080958);
#260=CIRCLE('',#406,0.0241568586080958);
#261=CIRCLE('',#407,0.0241568586080958);
#262=CIRCLE('',#410,0.0241568586080958);
#263=CIRCLE('',#411,0.0241568586080958);
#264=CIRCLE('',#414,0.0241568586080958);
#265=CIRCLE('',#415,0.0241568586080958);
#266=CIRCLE('',#420,0.007);
#267=CIRCLE('',#421,0.007);
#268=CIRCLE('',#423,0.002);
#269=CIRCLE('',#424,0.002);
#270=CIRCLE('',#426,0.002);
#271=CIRCLE('',#427,0.002);
#272=CIRCLE('',#429,0.002);
#273=CIRCLE('',#430,0.002);
#274=CIRCLE('',#432,0.002);
#275=CIRCLE('',#433,0.002);
#276=CIRCLE('',#437,0.007);
#277=CIRCLE('',#438,0.007);
#278=EDGE_LOOP('',(#78,#79,#80,#81));
#279=EDGE_LOOP('',(#82,#83,#84,#85));
#280=EDGE_LOOP('',(#86,#87,#88,#89));
#281=EDGE_LOOP('',(#90,#91,#92,#93));
#282=EDGE_LOOP('',(#94,#95,#96,#97));
#283=EDGE_LOOP('',(#98,#99,#100,#101));
#284=EDGE_LOOP('',(#102,#103,#104,#105));
#285=EDGE_LOOP('',(#106,#107,#108,#109));
#286=EDGE_LOOP('',(#110,#111,#112,#113));
#287=EDGE_LOOP('',(#114,#115,#116,#117));
#288=EDGE_LOOP('',(#118));
#289=EDGE_LOOP('',(#119));
#290=EDGE_LOOP('',(#120));
#291=EDGE_LOOP('',(#121));
#292=EDGE_LOOP('',(#122));
#293=EDGE_LOOP('',(#123));
#294=EDGE_LOOP('',(#124));
#295=EDGE_LOOP('',(#125));
#296=EDGE_LOOP('',(#126));
#297=EDGE_LOOP('',(#127));
#298=EDGE_LOOP('',(#128,#129,#130,#131));
#299=EDGE_LOOP('',(#132,#133,#134,#135));
#300=EDGE_LOOP('',(#136));
#301=EDGE_LOOP('',(#137));
#302=EDGE_LOOP('',(#138,#139,#140,#141));
#303=EDGE_LOOP('',(#142,#143,#144,#145,#146,#147,#148,#149));
#304=EDGE_LOOP('',(#150));
#305=EDGE_LOOP('',(#151));
#306=EDGE_LOOP('',(#152));
#307=EDGE_LOOP('',(#153));
#308=EDGE_LOOP('',(#154));
#309=EDGE_LOOP('',(#155));
#310=EDGE_LOOP('',(#156,#157,#158,#159));
#311=EDGE_LOOP('',(#160,#161,#162,#163,#164,#165,#166,#167));
#312=EDGE_LOOP('',(#168));
#313=EDGE_LOOP('',(#169));
#314=EDGE_LOOP('',(#170));
#315=EDGE_LOOP('',(#171));
#316=EDGE_LOOP('',(#172));
#317=EDGE_LOOP('',(#173));
#318=FACE_BOUND('',#278,.T.);
#319=FACE_BOUND('',#279,.T.);
#320=FACE_BOUND('',#280,.T.);
#321=FACE_BOUND('',#281,.T.);
#322=FACE_BOUND('',#282,.T.);
#323=FACE_BOUND('',#283,.T.);
#324=FACE_BOUND('',#284,.T.);
#325=FACE_BOUND('',#285,.T.);
#326=FACE_BOUND('',#286,.T.);
#327=FACE_BOUND('',#287,.T.);
#328=FACE_BOUND('',#288,.T.);
#329=FACE_BOUND('',#289,.T.);
#330=FACE_BOUND('',#290,.T.);
#331=FACE_BOUND('',#291,.T.);
#332=FACE_BOUND('',#292,.T.);
#333=FACE_BOUND('',#293,.T.);
#334=FACE_BOUND('',#294,.T.);
#335=FACE_BOUND('',#295,.T.);
#336=FACE_BOUND('',#296,.T.);
#337=FACE_BOUND('',#297,.T.);
#338=FACE_BOUND('',#298,.T.);
#339=FACE_BOUND('',#299,.T.);
#340=FACE_BOUND('',#300,.T.);
#341=FACE_BOUND('',#301,.T.);
#342=FACE_BOUND('',#302,.T.);
#343=FACE_BOUND('',#303,.T.);
#344=FACE_BOUND('',#304,.T.);
#345=FACE_BOUND('',#305,.T.);
#346=FACE_BOUND('',#306,.T.);
#347=FACE_BOUND('',#307,.T.);
#348=FACE_BOUND('',#308,.T.);
#349=FACE_BOUND('',#309,.T.);
#350=FACE_BOUND('',#310,.T.);
#351=FACE_BOUND('',#311,.T.);
#352=FACE_BOUND('',#312,.T.);
#353=FACE_BOUND('',#313,.T.);
#354=FACE_BOUND('',#314,.T.);
#355=FACE_BOUND('',#315,.T.);
#356=FACE_BOUND('',#316,.T.);
#357=FACE_BOUND('',#317,.T.);
#358=CYLINDRICAL_SURFACE('',#401,0.0241568586080958);
#359=CYLINDRICAL_SURFACE('',#405,0.0241568586080958);
#360=CYLINDRICAL_SURFACE('',#409,0.0241568586080958);
#361=CYLINDRICAL_SURFACE('',#413,0.0241568586080958);
#362=CYLINDRICAL_SURFACE('',#419,0.007);
#363=CYLINDRICAL_SURFACE('',#422,0.002);
#364=CYLINDRICAL_SURFACE('',#425,0.002);
#365=CYLINDRICAL_SURFACE('',#428,0.002);
#366=CYLINDRICAL_SURFACE('',#431,0.002);
#367=CYLINDRICAL_SURFACE('',#436,0.007);
#368=ADVANCED_FACE('',(#318),#358,.T.);
#369=ADVANCED_FACE('',(#319),#12,.T.);
#370=ADVANCED_FACE('',(#320),#359,.T.);
#371=ADVANCED_FACE('',(#321),#13,.F.);
#372=ADVANCED_FACE('',(#322),#360,.T.);
#373=ADVANCED_FACE('',(#323),#14,.F.);
#374=ADVANCED_FACE('',(#324),#361,.T.);
#375=ADVANCED_FACE('',(#325),#15,.T.);
#376=ADVANCED_FACE('',(#326),#16,.T.);
#377=ADVANCED_FACE('',(#327),#17,.T.);
#378=ADVANCED_FACE('',(#328,#329),#362,.F.);
#379=ADVANCED_FACE('',(#330,#331),#363,.F.);
#380=ADVANCED_FACE('',(#332,#333),#364,.F.);
#381=ADVANCED_FACE('',(#334,#335),#365,.F.);
#382=ADVANCED_FACE('',(#336,#337),#366,.F.);
#383=ADVANCED_FACE('',(#338),#18,.T.);
#384=ADVANCED_FACE('',(#339),#19,.T.);
#385=ADVANCED_FACE('',(#340,#341),#367,.F.);
#386=ADVANCED_FACE('',(#342,#343,#344,#345,#346,#347,#348,#349),#20,.T.);
#387=ADVANCED_FACE('',(#350,#351,#352,#353,#354,#355,#356,#357),#21,.F.);
#388=CLOSED_SHELL('',(#368,#369,#370,#371,#372,#373,#374,#375,#376,#377,
#378,#379,#380,#381,#382,#383,#384,#385,#386,#387));
#389=STYLED_ITEM('',(#390),#397);
#390=PRESENTATION_STYLE_ASSIGNMENT((#391));
#391=SURFACE_STYLE_USAGE(.BOTH.,#392);
#392=SURFACE_SIDE_STYLE('',(#393));
#393=SURFACE_STYLE_FILL_AREA(#394);
#394=FILL_AREA_STYLE('',(#395));
#395=FILL_AREA_STYLE_COLOUR('',#396);
#396=COLOUR_RGB('',0.615686274509804,0.811764705882353,0.929411764705882);
#397=MANIFOLD_SOLID_BREP('Part 1',#388);
#398=SHAPE_DEFINITION_REPRESENTATION(#662,#399);
#399=SHAPE_REPRESENTATION('Part 1',(#400),#657);
#400=AXIS2_PLACEMENT_3D('',#551,#441,#442);
#401=AXIS2_PLACEMENT_3D('',#552,#443,#444);
#402=AXIS2_PLACEMENT_3D('',#553,#445,#446);
#403=AXIS2_PLACEMENT_3D('',#558,#448,#449);
#404=AXIS2_PLACEMENT_3D('',#561,#451,#452);
#405=AXIS2_PLACEMENT_3D('',#567,#456,#457);
#406=AXIS2_PLACEMENT_3D('',#568,#458,#459);
#407=AXIS2_PLACEMENT_3D('',#572,#461,#462);
#408=AXIS2_PLACEMENT_3D('',#573,#463,#464);
#409=AXIS2_PLACEMENT_3D('',#579,#468,#469);
#410=AXIS2_PLACEMENT_3D('',#580,#470,#471);
#411=AXIS2_PLACEMENT_3D('',#584,#473,#474);
#412=AXIS2_PLACEMENT_3D('',#585,#475,#476);
#413=AXIS2_PLACEMENT_3D('',#591,#480,#481);
#414=AXIS2_PLACEMENT_3D('',#592,#482,#483);
#415=AXIS2_PLACEMENT_3D('',#596,#485,#486);
#416=AXIS2_PLACEMENT_3D('',#597,#487,#488);
#417=AXIS2_PLACEMENT_3D('',#606,#493,#494);
#418=AXIS2_PLACEMENT_3D('',#612,#498,#499);
#419=AXIS2_PLACEMENT_3D('',#618,#503,#504);
#420=AXIS2_PLACEMENT_3D('',#619,#505,#506);
#421=AXIS2_PLACEMENT_3D('',#621,#507,#508);
#422=AXIS2_PLACEMENT_3D('',#623,#509,#510);
#423=AXIS2_PLACEMENT_3D('',#624,#511,#512);
#424=AXIS2_PLACEMENT_3D('',#626,#513,#514);
#425=AXIS2_PLACEMENT_3D('',#628,#515,#516);
#426=AXIS2_PLACEMENT_3D('',#629,#517,#518);
#427=AXIS2_PLACEMENT_3D('',#631,#519,#520);
#428=AXIS2_PLACEMENT_3D('',#633,#521,#522);
#429=AXIS2_PLACEMENT_3D('',#634,#523,#524);
#430=AXIS2_PLACEMENT_3D('',#636,#525,#526);
#431=AXIS2_PLACEMENT_3D('',#638,#527,#528);
#432=AXIS2_PLACEMENT_3D('',#639,#529,#530);
#433=AXIS2_PLACEMENT_3D('',#641,#531,#532);
#434=AXIS2_PLACEMENT_3D('',#643,#533,#534);
#435=AXIS2_PLACEMENT_3D('',#646,#537,#538);
#436=AXIS2_PLACEMENT_3D('',#649,#541,#542);
#437=AXIS2_PLACEMENT_3D('',#650,#543,#544);
#438=AXIS2_PLACEMENT_3D('',#652,#545,#546);
#439=AXIS2_PLACEMENT_3D('',#654,#547,#548);
#440=AXIS2_PLACEMENT_3D('',#655,#549,#550);
#441=DIRECTION('',(0.,0.,1.));
#442=DIRECTION('',(1.,0.,0.));
#443=DIRECTION('',(-1.,0.,0.));
#444=DIRECTION('',(0.,0.,1.));
#445=DIRECTION('',(-1.,0.,0.));
#446=DIRECTION('',(0.,1.72345933297348E-15,-1.));
#447=DIRECTION('',(-1.,0.,0.));
#448=DIRECTION('',(-1.,0.,0.));
#449=DIRECTION('',(0.,1.72345933297348E-15,-1.));
#450=DIRECTION('',(-1.,0.,0.));
#451=DIRECTION('',(0.,-1.21902713137898E-16,-1.));
#452=DIRECTION('',(0.,1.,-1.21902713137898E-16));
#453=DIRECTION('',(0.,-1.,1.21902713137898E-16));
#454=DIRECTION('',(-1.,0.,0.));
#455=DIRECTION('',(0.,-1.,1.21902713137898E-16));
#456=DIRECTION('',(-1.,0.,0.));
#457=DIRECTION('',(0.,0.,1.));
#458=DIRECTION('',(1.,0.,0.));
#459=DIRECTION('',(0.,-1.14897288864899E-15,-1.));
#460=DIRECTION('',(-1.,0.,0.));
#461=DIRECTION('',(1.,0.,0.));
#462=DIRECTION('',(0.,-1.14897288864899E-15,-1.));
#463=DIRECTION('',(0.,-1.,0.));
#464=DIRECTION('',(0.,0.,-1.));
#465=DIRECTION('',(0.,0.,1.));
#466=DIRECTION('',(-1.,0.,0.));
#467=DIRECTION('',(0.,0.,1.));
#468=DIRECTION('',(-1.,0.,0.));
#469=DIRECTION('',(0.,0.,1.));
#470=DIRECTION('',(-1.,0.,0.));
#471=DIRECTION('',(0.,-1.72345933297348E-15,1.));
#472=DIRECTION('',(-1.,0.,0.));
#473=DIRECTION('',(-1.,0.,0.));
#474=DIRECTION('',(0.,-1.72345933297348E-15,1.));
#475=DIRECTION('',(0.,8.66353071351576E-17,-1.));
#476=DIRECTION('',(0.,1.,8.66353071351576E-17));
#477=DIRECTION('',(0.,-1.,-8.66353071351576E-17));
#478=DIRECTION('',(-1.,0.,0.));
#479=DIRECTION('',(0.,-1.,-8.66353071351576E-17));
#480=DIRECTION('',(-1.,0.,0.));
#481=DIRECTION('',(0.,0.,1.));
#482=DIRECTION('',(1.,0.,0.));
#483=DIRECTION('',(0.,1.72345933297348E-15,1.));
#484=DIRECTION('',(-1.,0.,0.));
#485=DIRECTION('',(1.,0.,0.));
#486=DIRECTION('',(0.,1.72345933297348E-15,1.));
#487=DIRECTION('',(0.,1.,-1.57344532968418E-16));
#488=DIRECTION('',(0.,1.57344532968418E-16,1.));
#489=DIRECTION('',(0.,-1.57344532968418E-16,-1.));
#490=DIRECTION('',(-1.,0.,0.));
#491=DIRECTION('',(0.,-1.57344532968418E-16,-1.));
#492=DIRECTION('',(-1.,0.,0.));
#493=DIRECTION('',(0.,0.,-1.));
#494=DIRECTION('',(-1.,0.,0.));
#495=DIRECTION('',(0.,-1.,0.));
#496=DIRECTION('',(-1.,0.,0.));
#497=DIRECTION('',(0.,-1.,0.));
#498=DIRECTION('',(0.,-1.,0.));
#499=DIRECTION('',(0.,0.,-1.));
#500=DIRECTION('',(0.,0.,1.));
#501=DIRECTION('',(-1.,0.,0.));
#502=DIRECTION('',(0.,0.,1.));
#503=DIRECTION('',(-1.,0.,0.));
#504=DIRECTION('',(0.,0.,1.));
#505=DIRECTION('',(1.,0.,0.));
#506=DIRECTION('',(0.,1.,0.));
#507=DIRECTION('',(1.,0.,0.));
#508=DIRECTION('',(0.,1.,0.));
#509=DIRECTION('',(-1.,0.,0.));
#510=DIRECTION('',(0.,0.,1.));
#511=DIRECTION('',(1.,0.,0.));
#512=DIRECTION('',(0.,1.,0.));
#513=DIRECTION('',(1.,0.,0.));
#514=DIRECTION('',(0.,1.,0.));
#515=DIRECTION('',(-1.,0.,0.));
#516=DIRECTION('',(0.,0.,1.));
#517=DIRECTION('',(1.,0.,0.));
#518=DIRECTION('',(0.,1.,0.));
#519=DIRECTION('',(1.,0.,0.));
#520=DIRECTION('',(0.,1.,0.));
#521=DIRECTION('',(-1.,0.,0.));
#522=DIRECTION('',(0.,0.,1.));
#523=DIRECTION('',(1.,0.,0.));
#524=DIRECTION('',(0.,1.,0.));
#525=DIRECTION('',(1.,0.,0.));
#526=DIRECTION('',(0.,1.,0.));
#527=DIRECTION('',(-1.,0.,0.));
#528=DIRECTION('',(0.,0.,1.));
#529=DIRECTION('',(1.,0.,0.));
#530=DIRECTION('',(0.,1.,0.));
#531=DIRECTION('',(1.,0.,0.));
#532=DIRECTION('',(0.,1.,0.));
#533=DIRECTION('',(0.,-1.,0.));
#534=DIRECTION('',(0.,0.,-1.));
#535=DIRECTION('',(0.,0.,1.));
#536=DIRECTION('',(0.,0.,1.));
#537=DIRECTION('',(0.,0.,1.));
#538=DIRECTION('',(1.,0.,0.));
#539=DIRECTION('',(0.,1.,0.));
#540=DIRECTION('',(0.,1.,0.));
#541=DIRECTION('',(-1.,0.,0.));
#542=DIRECTION('',(0.,0.,1.));
#543=DIRECTION('',(-1.,0.,0.));
#544=DIRECTION('',(0.,-1.,0.));
#545=DIRECTION('',(-1.,0.,0.));
#546=DIRECTION('',(0.,-1.,0.));
#547=DIRECTION('',(1.,0.,0.));
#548=DIRECTION('',(0.,1.,0.));
#549=DIRECTION('',(1.,0.,0.));
#550=DIRECTION('',(0.,1.,0.));
#551=CARTESIAN_POINT('',(0.,0.,0.));
#552=CARTESIAN_POINT('',(0.005,-0.113843141391904,-0.0658431413919043));
#553=CARTESIAN_POINT('',(0.,-0.113843141391904,-0.0658431413919043));
#554=CARTESIAN_POINT('',(0.,-0.113843141391904,-0.09));
#555=CARTESIAN_POINT('',(0.,-0.138,-0.0658431413919043));
#556=CARTESIAN_POINT('',(0.005,-0.113843141391904,-0.09));
#557=CARTESIAN_POINT('',(0.005,-0.113843141391904,-0.09));
#558=CARTESIAN_POINT('',(0.005,-0.113843141391904,-0.0658431413919043));
#559=CARTESIAN_POINT('',(0.005,-0.138,-0.0658431413919043));
#560=CARTESIAN_POINT('',(0.005,-0.138,-0.0658431413919043));
#561=CARTESIAN_POINT('',(0.005,0.,-0.09));
#562=CARTESIAN_POINT('',(0.,0.,-0.09));
#563=CARTESIAN_POINT('',(0.,0.113843141391904,-0.09));
#564=CARTESIAN_POINT('',(0.005,0.113843141391904,-0.09));
#565=CARTESIAN_POINT('',(0.005,0.113843141391904,-0.09));
#566=CARTESIAN_POINT('',(0.005,0.,-0.09));
#567=CARTESIAN_POINT('',(0.005,0.113843141391904,-0.0658431413919043));
#568=CARTESIAN_POINT('',(0.,0.113843141391904,-0.0658431413919043));
#569=CARTESIAN_POINT('',(0.,0.138,-0.0658431413919043));
#570=CARTESIAN_POINT('',(0.005,0.138,-0.0658431413919043));
#571=CARTESIAN_POINT('',(0.005,0.138,-0.0658431413919043));
#572=CARTESIAN_POINT('',(0.005,0.113843141391904,-0.0658431413919043));
#573=CARTESIAN_POINT('',(0.005,0.138,0.));
#574=CARTESIAN_POINT('',(0.,0.138,0.));
#575=CARTESIAN_POINT('',(0.,0.138,0.0658431413919043));
#576=CARTESIAN_POINT('',(0.005,0.138,0.0658431413919043));
#577=CARTESIAN_POINT('',(0.005,0.138,0.0658431413919043));
#578=CARTESIAN_POINT('',(0.005,0.138,0.));
#579=CARTESIAN_POINT('',(0.005,0.113843141391904,0.0658431413919043));
#580=CARTESIAN_POINT('',(0.,0.113843141391904,0.0658431413919043));
#581=CARTESIAN_POINT('',(0.,0.113843141391904,0.09));
#582=CARTESIAN_POINT('',(0.005,0.113843141391904,0.09));
#583=CARTESIAN_POINT('',(0.005,0.113843141391904,0.09));
#584=CARTESIAN_POINT('',(0.005,0.113843141391904,0.0658431413919043));
#585=CARTESIAN_POINT('',(0.005,0.03375,0.09));
#586=CARTESIAN_POINT('',(0.,0.03375,0.09));
#587=CARTESIAN_POINT('',(0.,-0.113843141391904,0.09));
#588=CARTESIAN_POINT('',(0.005,-0.113843141391904,0.09));
#589=CARTESIAN_POINT('',(0.005,-0.113843141391904,0.09));
#590=CARTESIAN_POINT('',(0.005,0.03375,0.09));
#591=CARTESIAN_POINT('',(0.005,-0.113843141391904,0.0658431413919043));
#592=CARTESIAN_POINT('',(0.,-0.113843141391904,0.0658431413919043));
#593=CARTESIAN_POINT('',(0.,-0.138,0.0658431413919043));
#594=CARTESIAN_POINT('',(0.005,-0.138,0.0658431413919043));
#595=CARTESIAN_POINT('',(0.005,-0.138,0.0658431413919043));
#596=CARTESIAN_POINT('',(0.005,-0.113843141391904,0.0658431413919043));
#597=CARTESIAN_POINT('',(0.005,-0.0758092058066003,0.00137235211897642));
#598=CARTESIAN_POINT('',(0.,-0.0758092058066003,0.00137235211897642));
#599=CARTESIAN_POINT('',(0.,-0.0758092058066003,0.0454723521189764));
#600=CARTESIAN_POINT('',(0.,-0.0758092058066003,-0.0427276478810236));
#601=CARTESIAN_POINT('',(0.005,-0.0758092058066003,0.0454723521189764));
#602=CARTESIAN_POINT('',(0.005,-0.0758092058066003,0.0454723521189764));
#603=CARTESIAN_POINT('',(0.005,-0.0758092058066003,0.00137235211897642));
#604=CARTESIAN_POINT('',(0.005,-0.0758092058066003,-0.0427276478810236));
#605=CARTESIAN_POINT('',(0.005,-0.0758092058066003,-0.0427276478810236));
#606=CARTESIAN_POINT('',(0.005,0.00179079419339969,0.0454723521189764));
#607=CARTESIAN_POINT('',(0.,0.00179079419339969,0.0454723521189764));
#608=CARTESIAN_POINT('',(0.,0.0793907941933997,0.0454723521189764));
#609=CARTESIAN_POINT('',(0.005,0.0793907941933997,0.0454723521189764));
#610=CARTESIAN_POINT('',(0.005,0.0793907941933997,0.0454723521189764));
#611=CARTESIAN_POINT('',(0.005,0.00179079419339969,0.0454723521189764));
#612=CARTESIAN_POINT('',(0.005,0.0793907941933997,0.00137235211897642));
#613=CARTESIAN_POINT('',(0.,0.0793907941933997,0.00137235211897642));
#614=CARTESIAN_POINT('',(0.,0.0793907941933997,-0.0427276478810236));
#615=CARTESIAN_POINT('',(0.005,0.0793907941933997,-0.0427276478810236));
#616=CARTESIAN_POINT('',(0.005,0.0793907941933997,-0.0427276478810236));
#617=CARTESIAN_POINT('',(0.005,0.0793907941933997,0.00137235211897642));
#618=CARTESIAN_POINT('',(0.005,0.109655722975731,0.0107738049700856));
#619=CARTESIAN_POINT('',(0.005,0.109655722975731,0.0107738049700856));
#620=CARTESIAN_POINT('',(0.005,0.116655722975731,0.0107738049700856));
#621=CARTESIAN_POINT('',(0.,0.109655722975731,0.0107738049700856));
#622=CARTESIAN_POINT('',(0.,0.116655722975731,0.0107738049700856));
#623=CARTESIAN_POINT('',(0.005,-0.113843141391904,-0.0658431413919043));
#624=CARTESIAN_POINT('',(0.005,-0.113843141391904,-0.0658431413919043));
#625=CARTESIAN_POINT('',(0.005,-0.111843141391904,-0.0658431413919043));
#626=CARTESIAN_POINT('',(0.,-0.113843141391904,-0.0658431413919043));
#627=CARTESIAN_POINT('',(0.,-0.111843141391904,-0.0658431413919043));
#628=CARTESIAN_POINT('',(0.005,0.113843141391904,-0.0658431413919043));
#629=CARTESIAN_POINT('',(0.005,0.113843141391904,-0.0658431413919043));
#630=CARTESIAN_POINT('',(0.005,0.115843141391904,-0.0658431413919043));
#631=CARTESIAN_POINT('',(0.,0.113843141391904,-0.0658431413919043));
#632=CARTESIAN_POINT('',(0.,0.115843141391904,-0.0658431413919043));
#633=CARTESIAN_POINT('',(0.005,0.113843141391904,0.0658431413919043));
#634=CARTESIAN_POINT('',(0.005,0.113843141391904,0.0658431413919043));
#635=CARTESIAN_POINT('',(0.005,0.115843141391904,0.0658431413919043));
#636=CARTESIAN_POINT('',(0.,0.113843141391904,0.0658431413919043));
#637=CARTESIAN_POINT('',(0.,0.115843141391904,0.0658431413919043));
#638=CARTESIAN_POINT('',(0.005,-0.113843141391904,0.0658431413919043));
#639=CARTESIAN_POINT('',(0.005,-0.113843141391904,0.0658431413919043));
#640=CARTESIAN_POINT('',(0.005,-0.111843141391904,0.0658431413919043));
#641=CARTESIAN_POINT('',(0.,-0.113843141391904,0.0658431413919043));
#642=CARTESIAN_POINT('',(0.,-0.111843141391904,0.0658431413919043));
#643=CARTESIAN_POINT('',(0.005,-0.138,0.));
#644=CARTESIAN_POINT('',(0.,-0.138,0.));
#645=CARTESIAN_POINT('',(0.005,-0.138,0.));
#646=CARTESIAN_POINT('',(0.005,0.00179079419339969,-0.0427276478810236));
#647=CARTESIAN_POINT('',(0.,0.00179079419339969,-0.0427276478810236));
#648=CARTESIAN_POINT('',(0.005,0.00179079419339969,-0.0427276478810236));
#649=CARTESIAN_POINT('',(0.005,-0.109655722975731,0.0107738049700856));
#650=CARTESIAN_POINT('',(0.005,-0.109655722975731,0.0107738049700856));
#651=CARTESIAN_POINT('',(0.005,-0.116655722975731,0.0107738049700856));
#652=CARTESIAN_POINT('',(0.,-0.109655722975731,0.0107738049700856));
#653=CARTESIAN_POINT('',(0.,-0.116655722975731,0.0107738049700856));
#654=CARTESIAN_POINT('',(0.005,0.,0.));
#655=CARTESIAN_POINT('',(0.,0.,0.));
#656=MECHANICAL_DESIGN_GEOMETRIC_PRESENTATION_REPRESENTATION('',(#389),
#657);
#657=(
GEOMETRIC_REPRESENTATION_CONTEXT(3)
GLOBAL_UNCERTAINTY_ASSIGNED_CONTEXT((#658))
GLOBAL_UNIT_ASSIGNED_CONTEXT((#661,#660,#659))
REPRESENTATION_CONTEXT('Part 1','TOP_LEVEL_ASSEMBLY_PART')
);
#658=UNCERTAINTY_MEASURE_WITH_UNIT(LENGTH_MEASURE(1.E-8),#661,
'DISTANCE_ACCURACY_VALUE','Maximum Tolerance applied to model');
#659=(
NAMED_UNIT(*)
SI_UNIT($,.STERADIAN.)
SOLID_ANGLE_UNIT()
);
#660=(
NAMED_UNIT(*)
PLANE_ANGLE_UNIT()
SI_UNIT($,.RADIAN.)
);
#661=(
LENGTH_UNIT()
NAMED_UNIT(*)
SI_UNIT($,.METRE.)
);
#662=PRODUCT_DEFINITION_SHAPE('','',#663);
#663=PRODUCT_DEFINITION('','',#665,#664);
#664=PRODUCT_DEFINITION_CONTEXT('',#671,'design');
#665=PRODUCT_DEFINITION_FORMATION_WITH_SPECIFIED_SOURCE('','',#667,
 .NOT_KNOWN.);
#666=PRODUCT_RELATED_PRODUCT_CATEGORY('','',(#667));
#667=PRODUCT('Part 1','Part 1','Part 1',(#669));
#668=PRODUCT_CATEGORY('','');
#669=PRODUCT_CONTEXT('',#671,'mechanical');
#670=APPLICATION_PROTOCOL_DEFINITION('international standard',
'ap242_managed_model_based_3d_engineering',2020,#671);
#671=APPLICATION_CONTEXT('managed model based 3d engineering');
ENDSEC;
END-ISO-10303-21;
